<svg width="736" height="520" viewBox="0 0 736 520" xmlns="http://www.w3.org/2000/svg" xmlns:xlink="http://www.w3.org/1999/xlink" style="background:#fff"><title>regions-zones</title><defs><rect id="a" x="43" y="43" width="390" height="265.709" rx="2"/><mask id="p" x="0" y="0" width="390" height="265.709" fill="#fff"><use xlink:href="#a"/></mask><rect id="b" x="21" y="21" width="390" height="265.709" rx="2"/><mask id="q" x="0" y="0" width="390" height="265.709" fill="#fff"><use xlink:href="#b"/></mask><rect id="c" width="390" height="265.709" rx="2"/><mask id="r" x="0" y="0" width="390" height="265.709" fill="#fff"><use xlink:href="#c"/></mask><rect id="d" width="147" height="158" rx="2"/><mask id="s" x="0" y="0" width="147" height="158" fill="#fff"><use xlink:href="#d"/></mask><rect id="e" width="127" height="48" rx="2"/><mask id="t" x="0" y="0" width="127" height="48" fill="#fff"><use xlink:href="#e"/></mask><linearGradient x1="50%" y1="0%" x2="50%" y2="100%" id="u"><stop stop-opacity="0" offset="0%"/><stop stop-opacity="0" offset="80%"/><stop stop-opacity=".02" offset="95%"/><stop stop-opacity=".04" offset="100%"/></linearGradient><linearGradient x1="50%" y1="0%" x2="50%" y2="100%" id="w"><stop stop-color="#FFF" stop-opacity=".2" offset="0%"/><stop stop-color="#FFF" stop-opacity=".1" offset="4.905%"/><stop stop-color="#FFF" stop-opacity="0" offset="20%"/><stop stop-color="#FFF" stop-opacity="0" offset="100%"/></linearGradient><path d="M1.557 6.932c0 .212.175.385.39.385h.388v1.348c0 .32.261.578.584.578a.58.58 0 0 0 .584-.578V7.317h.779v1.348c0 .32.26.578.583.578a.58.58 0 0 0 .584-.578V7.317h.39a.388.388 0 0 0 .389-.385v-3.85H1.557v3.85z" id="f"/><mask id="v" x="0" y="0" width="4.671" height="6.161" fill="#fff"><use xlink:href="#f"/></mask><mask id="x" x="0" y="0" width="4.671" height="6.161" fill="#fff"><use xlink:href="#f"/></mask><path d="M.584 3.081A.58.58 0 0 0 0 3.66v2.695c0 .32.26.578.584.578a.58.58 0 0 0 .584-.578V3.66a.58.58 0 0 0-.584-.578z" id="g"/><mask id="y" x="0" y="0" width="1.168" height="3.851" fill="#fff"><use xlink:href="#g"/></mask><mask id="z" x="0" y="0" width="1.168" height="3.851" fill="#fff"><use xlink:href="#g"/></mask><path d="M7.2 3.081a.58.58 0 0 0-.583.578v2.695c0 .32.26.578.584.578a.58.58 0 0 0 .584-.578V3.66a.58.58 0 0 0-.585-.58z" id="h"/><mask id="A" x="0" y="0" width="1.168" height="3.851" fill="#fff"><use xlink:href="#h"/></mask><mask id="B" x="0" y="0" width="1.168" height="3.851" fill="#fff"><use xlink:href="#h"/></mask><path d="M5.774.33a.19.19 0 0 0 0-.271.195.195 0 0 0-.274 0l-.576.568a2.334 2.334 0 0 0-2.069.001L2.278.057a.194.194 0 0 0-.274 0 .19.19 0 0 0 0 .27l.509.505a2.306 2.306 0 0 0-.956 1.864h4.67a2.3 2.3 0 0 0-.96-1.864L5.773.33zm-3.05 1.596V1.54h.39v.385h-.39zm1.947 0V1.54h.39v.385h-.39z" id="i"/><mask id="C" x="0" y="0" width="4.671" height="2.696" fill="#fff"><use xlink:href="#i"/></mask><mask id="D" x="0" y="0" width="4.671" height="2.696" fill="#fff"><use xlink:href="#i"/></mask><rect id="j" width="127" height="48" rx="2"/><mask id="E" x="0" y="0" width="127" height="48" fill="#fff"><use xlink:href="#j"/></mask><rect id="k" width="147" height="48" rx="2"/><mask id="F" x="0" y="0" width="147" height="48" fill="#fff"><use xlink:href="#k"/></mask><rect id="l" width="147" height="48" rx="2"/><mask id="G" x="0" y="0" width="147" height="48" fill="#fff"><use xlink:href="#l"/></mask><rect id="m" width="147" height="48" rx="2"/><mask id="H" x="0" y="0" width="147" height="48" fill="#fff"><use xlink:href="#m"/></mask><path d="M0 2.002C0 .896.9 0 1.999 0h170.995A2 2 0 0 1 175 2.002v27.996c0 1.106-.9 2.002-1.995 2.002H1.995A1.994 1.994 0 0 1 0 29.998V2.002z" id="n"/><mask id="I" x="0" y="0" width="175" height="32" fill="#fff"><use xlink:href="#n"/></mask><rect id="o" x="146" y="326" width="127" height="32" rx="2"/><mask id="J" x="0" y="0" width="127" height="32" fill="#fff"><use xlink:href="#o"/></mask></defs><g fill="none" fill-rule="evenodd"><path d="M272.344 66.154c-.515.67-1.227 1.179-2.139 1.524-.911.345-1.947.517-3.105.517-1.192 0-2.246-.27-3.164-.81-.918-.54-1.626-1.314-2.124-2.32-.499-1.005-.757-2.179-.777-3.52v-1.113c0-2.149.514-3.827 1.543-5.035 1.029-1.207 2.464-1.811 4.307-1.811 1.582 0 2.838.39 3.77 1.172.93.781 1.49 1.907 1.679 3.379h-2.422c-.273-1.713-1.266-2.569-2.978-2.569-1.107 0-1.949.4-2.525 1.197-.576.797-.874 1.967-.893 3.51v1.094c0 1.537.324 2.73.971 3.58.648.849 1.548 1.274 2.7 1.274 1.264 0 2.162-.287 2.696-.86V62.58h-2.93v-1.875h5.39v5.45zm2.04-3.535c0-1.035.206-1.968.616-2.798.41-.83.986-1.468 1.729-1.914.742-.446 1.595-.669 2.558-.669 1.426 0 2.583.46 3.472 1.377.888.918 1.369 2.136 1.44 3.653l.01.556c0 1.042-.2 1.973-.6 2.793-.401.82-.974 1.455-1.72 1.904-.745.45-1.606.674-2.582.674-1.491 0-2.684-.496-3.58-1.489-.895-.993-1.342-2.316-1.342-3.97v-.117zm2.374.205c0 1.087.224 1.939.674 2.554.449.615 1.074.923 1.875.923.8 0 1.424-.313 1.87-.938.446-.625.669-1.54.669-2.744 0-1.068-.23-1.914-.689-2.539-.459-.625-1.082-.937-1.87-.937-.775 0-1.39.307-1.846.922-.455.616-.683 1.535-.683 2.76zm9.013-.205c0-1.035.206-1.968.616-2.798.41-.83.986-1.468 1.728-1.914.742-.446 1.595-.669 2.559-.669 1.426 0 2.583.46 3.472 1.377.888.918 1.368 2.136 1.44 3.653l.01.556c0 1.042-.2 1.973-.6 2.793-.401.82-.974 1.455-1.72 1.904-.745.45-1.606.674-2.583.674-1.49 0-2.684-.496-3.579-1.489-.895-.993-1.343-2.316-1.343-3.97v-.117zm2.374.205c0 1.087.224 1.939.673 2.554.45.615 1.075.923 1.875.923.801 0 1.425-.313 1.87-.938.446-.625.67-1.54.67-2.744 0-1.068-.23-1.914-.69-2.539-.458-.625-1.081-.937-1.87-.937-.774 0-1.39.307-1.845.922-.456.616-.683 1.535-.683 2.76zm9.043-.185c0-1.641.385-2.951 1.157-3.931.771-.98 1.795-1.47 3.071-1.47 1.204 0 2.152.42 2.842 1.26l.107-1.064h2.139v10.244c0 1.386-.431 2.48-1.294 3.281-.863.8-2.026 1.201-3.491 1.201a5.627 5.627 0 0 1-2.27-.483c-.74-.323-1.301-.744-1.685-1.265l1.123-1.426c.729.866 1.627 1.3 2.695 1.3.788 0 1.41-.214 1.865-.64.456-.427.684-1.054.684-1.88v-.713c-.684.761-1.595 1.142-2.735 1.142-1.237 0-2.247-.491-3.032-1.474-.784-.983-1.176-2.344-1.176-4.082zm2.363.205c0 1.061.216 1.896.65 2.505.432.608 1.033.913 1.801.913.957 0 1.667-.41 2.129-1.23v-4.65c-.45-.8-1.152-1.2-2.11-1.2-.78 0-1.388.309-1.82.927-.434.619-.65 1.53-.65 2.735zM311.465 68h-2.373V53h2.373v15zm7.236.195c-1.504 0-2.723-.473-3.657-1.42-.934-.948-1.401-2.21-1.401-3.785v-.293c0-1.054.203-1.997.61-2.827.407-.83.978-1.476 1.714-1.938a4.531 4.531 0 0 1 2.46-.694c1.44 0 2.551.46 3.336 1.377.784.918 1.176 2.217 1.176 3.897v.957h-6.904c.072.872.363 1.562.874 2.07.511.508 1.154.762 1.929.762 1.087 0 1.973-.44 2.656-1.319l1.28 1.221a4.272 4.272 0 0 1-1.695 1.47c-.706.348-1.499.522-2.378.522zm-.283-9.052c-.651 0-1.177.227-1.577.683-.4.456-.656 1.09-.767 1.904h4.522v-.175c-.052-.795-.264-1.395-.635-1.802-.371-.407-.885-.61-1.543-.61zm22.422 4.228c-.143 1.517-.703 2.7-1.68 3.55-.976.85-2.275 1.274-3.896 1.274-1.133 0-2.13-.268-2.993-.805s-1.529-1.3-1.998-2.29c-.468-.99-.712-2.14-.732-3.448v-1.328c0-1.34.238-2.523.713-3.545.475-1.022 1.157-1.81 2.046-2.363.888-.553 1.915-.83 3.08-.83 1.57 0 2.833.426 3.79 1.28.957.852 1.514 2.057 1.67 3.613h-2.461c-.117-1.023-.415-1.76-.894-2.212-.478-.453-1.18-.68-2.104-.68-1.074 0-1.9.393-2.476 1.178-.576.784-.87 1.935-.884 3.452v1.26c0 1.536.276 2.708.826 3.515.55.807 1.355 1.211 2.417 1.211.97 0 1.699-.218 2.187-.654.488-.436.798-1.162.928-2.178h2.46zM345.342 68h-2.373V53h2.373v15zm2.138-5.38c0-1.036.206-1.969.616-2.799.41-.83.986-1.468 1.728-1.914.742-.446 1.595-.669 2.559-.669 1.426 0 2.583.46 3.471 1.377.89.918 1.37 2.136 1.44 3.653l.01.556c0 1.042-.2 1.973-.6 2.793-.4.82-.973 1.455-1.719 1.904-.745.45-1.606.674-2.583.674-1.49 0-2.684-.496-3.579-1.489-.895-.993-1.343-2.316-1.343-3.97v-.117zm2.374.204c0 1.087.224 1.939.673 2.554.45.615 1.075.923 1.875.923.801 0 1.424-.313 1.87-.938.446-.625.67-1.54.67-2.744 0-1.068-.23-1.914-.69-2.539-.458-.625-1.081-.937-1.87-.937-.774 0-1.39.307-1.845.922-.456.616-.683 1.535-.683 2.76zm15.859 4.14c-.697.821-1.686 1.231-2.969 1.231-1.146 0-2.013-.335-2.602-1.006-.59-.67-.884-1.64-.884-2.91v-6.845h2.373v6.816c0 1.341.556 2.012 1.67 2.012 1.152 0 1.93-.414 2.334-1.24v-7.588h2.373V68h-2.237l-.058-1.035zm4.267-4.325c0-1.628.378-2.935 1.133-3.921.755-.987 1.768-1.48 3.037-1.48 1.12 0 2.025.39 2.715 1.172V53h2.373v15h-2.148l-.117-1.094c-.71.86-1.657 1.29-2.842 1.29-1.237 0-2.238-.499-3.003-1.495-.765-.996-1.148-2.35-1.148-4.062zm2.374.205c0 1.074.206 1.912.62 2.514.413.603 1 .904 1.762.904.97 0 1.68-.433 2.13-1.3v-4.51c-.437-.847-1.14-1.27-2.11-1.27-.768 0-1.36.304-1.777.913-.417.608-.625 1.525-.625 2.749zm17.04-.127V68h-2.47V53.781h5.44c1.588 0 2.85.414 3.783 1.24.935.827 1.402 1.921 1.402 3.282 0 1.393-.458 2.477-1.372 3.252-.915.774-2.196 1.162-3.843 1.162h-2.94zm0-1.983h2.97c.878 0 1.549-.206 2.011-.62.462-.413.693-1.01.693-1.792 0-.768-.234-1.382-.703-1.84-.469-.46-1.113-.696-1.933-.709h-3.037v4.961zM402.003 68h-2.373V53h2.373v15zm8.896 0c-.104-.202-.195-.53-.273-.986-.755.787-1.68 1.181-2.773 1.181-1.062 0-1.928-.302-2.598-.908-.67-.605-1.006-1.354-1.006-2.246 0-1.126.418-1.99 1.255-2.593.837-.602 2.033-.903 3.589-.903h1.455v-.693c0-.547-.153-.985-.46-1.314-.305-.329-.77-.493-1.396-.493-.54 0-.983.135-1.328.405-.345.27-.517.614-.517 1.03h-2.373c0-.579.192-1.12.576-1.626.384-.504.906-.9 1.567-1.186.661-.286 1.398-.43 2.212-.43 1.237 0 2.223.311 2.96.933.735.622 1.112 1.496 1.132 2.622v4.766c0 .95.133 1.709.4 2.275V68h-2.422zm-2.607-1.709a2.7 2.7 0 0 0 1.323-.342 2.28 2.28 0 0 0 .933-.918V63.04h-1.28c-.878 0-1.54.153-1.982.459-.443.306-.664.739-.664 1.299 0 .456.151.819.454 1.089.303.27.708.405 1.216.405zm10.088-11.426v2.569h1.865v1.757h-1.865v5.899c0 .403.08.695.24.874.159.179.443.268.854.268.273 0 .55-.032.83-.097v1.836a5.83 5.83 0 0 1-1.563.224c-1.823 0-2.734-1.006-2.734-3.017V59.19h-1.738v-1.757h1.738v-2.569h2.373zM422.89 68v-8.809h-1.612v-1.757h1.612v-.967c0-1.172.325-2.077.976-2.715.651-.638 1.563-.957 2.735-.957a5.5 5.5 0 0 1 1.328.176l-.059 1.855a4.674 4.674 0 0 0-.908-.078c-1.133 0-1.7.583-1.7 1.748v.938h2.15v1.757h-2.15V68h-2.372zm5.81-5.38c0-1.036.205-1.969.615-2.799.41-.83.987-1.468 1.729-1.914.742-.446 1.595-.669 2.559-.669 1.425 0 2.583.46 3.471 1.377.889.918 1.369 2.136 1.44 3.653l.01.556c0 1.042-.2 1.973-.6 2.793-.4.82-.973 1.455-1.719 1.904-.745.45-1.606.674-2.583.674-1.49 0-2.684-.496-3.58-1.489-.894-.993-1.342-2.316-1.342-3.97v-.117zm2.373.204c0 1.087.225 1.939.674 2.554.45.615 1.074.923 1.875.923.8 0 1.424-.313 1.87-.938.446-.625.67-1.54.67-2.744 0-1.068-.23-1.914-.69-2.539-.458-.625-1.082-.937-1.87-.937-.774 0-1.39.307-1.845.922-.456.616-.684 1.535-.684 2.76zm14.99-3.222a5.872 5.872 0 0 0-.966-.079c-1.088 0-1.82.417-2.198 1.25V68h-2.373V57.434h2.266l.059 1.181c.572-.918 1.367-1.377 2.382-1.377.339 0 .619.046.84.137l-.01 2.227zm3.73-2.168l.07 1.103c.741-.866 1.757-1.299 3.046-1.299 1.413 0 2.38.54 2.9 1.621.769-1.08 1.85-1.62 3.243-1.62 1.165 0 2.033.322 2.602.966.57.645.861 1.595.874 2.852V68h-2.373v-6.875c0-.67-.146-1.162-.44-1.475-.292-.312-.777-.468-1.454-.468-.54 0-.982.144-1.324.434-.341.29-.58.67-.717 1.138l.01 7.246h-2.374v-6.953c-.032-1.244-.667-1.865-1.904-1.865-.95 0-1.624.387-2.021 1.162V68h-2.373V57.434h2.236zM314.361 88.953c0-1.053.142-2.052.424-2.997a8.228 8.228 0 0 1 1.244-2.537c.547-.745 1.126-1.268 1.737-1.568l.328.97c-.643.488-1.163 1.232-1.562 2.232-.399 1-.617 2.146-.653 3.435l-.007.588c0 1.381.195 2.613.585 3.695.39 1.082.935 1.906 1.637 2.471l-.328.923c-.611-.3-1.191-.826-1.74-1.576a8.226 8.226 0 0 1-1.244-2.536c-.28-.94-.42-1.974-.42-3.1zm12.647 2.755c-.36.47-.86.825-1.497 1.066-.638.242-1.363.363-2.174.363-.834 0-1.572-.19-2.215-.568a3.78 3.78 0 0 1-1.487-1.623c-.348-.704-.53-1.526-.543-2.465v-.779c0-1.504.36-2.678 1.08-3.524.72-.845 1.725-1.268 3.015-1.268 1.107 0 1.986.274 2.638.82.652.547 1.044 1.336 1.176 2.366h-1.695c-.192-1.199-.887-1.798-2.085-1.798-.775 0-1.364.279-1.767.837-.404.559-.612 1.378-.626 2.458v.765c0 1.076.227 1.911.68 2.506.454.594 1.084.892 1.89.892.885 0 1.513-.2 1.887-.602v-1.948h-2.05v-1.312h3.773v3.814zM330.515 93h-1.661V82.5h1.66V93zm1.497-3.767c0-.724.143-1.377.43-1.958a3.145 3.145 0 0 1 1.21-1.34c.52-.312 1.117-.468 1.791-.468.998 0 1.808.321 2.43.964.623.642.959 1.494 1.009 2.556l.007.39c0 .73-.14 1.38-.42 1.955a3.108 3.108 0 0 1-1.204 1.333c-.522.314-1.124.472-1.808.472-1.044 0-1.879-.348-2.505-1.043-.627-.695-.94-1.621-.94-2.779v-.082zm1.66.144c0 .761.158 1.357.473 1.788.314.43.751.646 1.312.646.56 0 .997-.22 1.31-.657.311-.437.467-1.077.467-1.92 0-.748-.16-1.34-.482-1.778-.32-.437-.757-.656-1.309-.656-.542 0-.973.215-1.292.646-.319.43-.478 1.074-.478 1.931zm13.112 0c0 1.148-.256 2.062-.769 2.741-.513.68-1.218 1.019-2.116 1.019-.865 0-1.54-.312-2.023-.937l-.082.8h-1.504V82.5h1.661v3.814c.479-.565 1.124-.847 1.935-.847.902 0 1.61.335 2.126 1.005.515.67.772 1.606.772 2.81v.095zm-1.661-.144c0-.802-.141-1.403-.424-1.804-.282-.401-.692-.602-1.23-.602-.72 0-1.226.315-1.518.944v3.048c.296.643.807.964 1.531.964.52 0 .921-.193 1.204-.58.282-.388.428-.974.437-1.758v-.212zM352.595 93c-.073-.141-.137-.371-.192-.69a2.586 2.586 0 0 1-1.941.827c-.743 0-1.349-.212-1.818-.636a2.034 2.034 0 0 1-.705-1.572c0-.789.293-1.394.879-1.815.585-.422 1.423-.633 2.512-.633h1.019v-.485c0-.383-.107-.69-.322-.92-.214-.23-.54-.345-.977-.345-.378 0-.688.095-.93.284a.878.878 0 0 0-.362.721h-1.661c0-.405.134-.785.403-1.138.269-.353.635-.63 1.097-.83.463-.2.979-.301 1.549-.301.865 0 1.556.217 2.07.653.516.435.78 1.047.794 1.835v3.336c0 .665.093 1.196.28 1.593V93h-1.695zm-1.825-1.196c.328 0 .636-.08.926-.24.29-.16.507-.373.653-.642v-1.395h-.896c-.615 0-1.078.107-1.388.322-.31.214-.464.517-.464.909 0 .319.106.573.317.762.212.19.496.284.852.284zM357.517 93h-1.662V82.5h1.662V93zm10.657-2.563c0-.438-.154-.775-.462-1.012-.307-.237-.862-.476-1.664-.718-.802-.242-1.44-.51-1.914-.807-.907-.57-1.36-1.312-1.36-2.228 0-.802.326-1.463.98-1.983.654-.52 1.503-.779 2.547-.779.692 0 1.31.128 1.852.383a3.04 3.04 0 0 1 1.279 1.09c.31.472.464.995.464 1.57h-1.722c0-.52-.163-.927-.489-1.221-.326-.294-.792-.441-1.398-.441-.565 0-1.004.12-1.316.362-.312.242-.468.58-.468 1.012 0 .365.169.669.506.913.337.243.893.48 1.668.71.775.23 1.397.493 1.866.787.47.294.813.63 1.032 1.011.219.381.328.826.328 1.337 0 .83-.318 1.489-.953 1.979-.636.49-1.498.735-2.588.735-.72 0-1.382-.134-1.986-.4-.603-.267-1.073-.635-1.408-1.104-.335-.47-.502-1.016-.502-1.64h1.73c0 .564.186 1.002.56 1.312.374.31.909.465 1.606.465.602 0 1.054-.122 1.357-.366a1.18 1.18 0 0 0 .455-.967zm6.125 1.374c.415 0 .759-.121 1.032-.363.273-.241.42-.54.438-.895h1.565a2.44 2.44 0 0 1-.43 1.288 2.825 2.825 0 0 1-1.094.947 3.26 3.26 0 0 1-1.49.349c-1.035 0-1.855-.335-2.462-1.005-.606-.67-.909-1.595-.909-2.776v-.17c0-1.126.301-2.027.903-2.704.601-.677 1.421-1.015 2.46-1.015.88 0 1.597.256 2.15.769.554.513.845 1.186.872 2.02h-1.565c-.019-.424-.163-.773-.435-1.046-.27-.273-.616-.41-1.035-.41-.538 0-.953.195-1.244.584-.292.39-.44.981-.445 1.774v.267c0 .802.145 1.4.434 1.794.29.394.708.592 1.255.592zm3.978-2.578c0-.724.144-1.377.431-1.958a3.145 3.145 0 0 1 1.21-1.34c.52-.312 1.117-.468 1.791-.468.998 0 1.808.321 2.43.964.622.642.958 1.494 1.008 2.556l.007.39c0 .73-.14 1.38-.42 1.955a3.108 3.108 0 0 1-1.203 1.333c-.522.314-1.125.472-1.808.472-1.044 0-1.88-.348-2.506-1.043-.626-.695-.94-1.621-.94-2.779v-.082zm1.661.144c0 .761.158 1.357.472 1.788.315.43.752.646 1.313.646.56 0 .997-.22 1.309-.657.312-.437.468-1.077.468-1.92 0-.748-.16-1.34-.482-1.778-.321-.437-.758-.656-1.309-.656-.542 0-.973.215-1.292.646-.319.43-.479 1.074-.479 1.931zm13.098 0c0 1.144-.26 2.056-.78 2.738-.519.681-1.216 1.022-2.091 1.022-.811 0-1.46-.267-1.948-.8v3.507h-1.661v-10.24h1.53l.07.751c.487-.592 1.15-.888 1.989-.888.902 0 1.61.336 2.122 1.008.513.672.77 1.605.77 2.8v.102zm-1.654-.144c0-.738-.147-1.323-.441-1.756-.294-.433-.714-.65-1.261-.65-.68 0-1.167.28-1.463.841v3.281c.3.574.793.862 1.476.862.529 0 .943-.214 1.241-.64.299-.426.448-1.072.448-1.938zm6.316 3.904c-1.052 0-1.906-.332-2.56-.995-.654-.663-.98-1.546-.98-2.649v-.205c0-.738.142-1.398.426-1.979a3.252 3.252 0 0 1 1.2-1.357 3.172 3.172 0 0 1 1.723-.485c1.007 0 1.785.321 2.334.964.55.642.824 1.551.824 2.727v.67h-4.833c.05.61.254 1.094.612 1.45.358.355.808.533 1.35.533.761 0 1.38-.308 1.86-.923l.895.854a2.99 2.99 0 0 1-1.186 1.029 3.713 3.713 0 0 1-1.665.366zM397.5 86.8c-.456 0-.824.16-1.104.478-.28.32-.46.764-.537 1.333h3.165v-.123c-.036-.556-.184-.976-.444-1.26-.26-.286-.62-.428-1.08-.428zm7.656 2.263c0 1.011-.139 1.988-.417 2.929a8.3 8.3 0 0 1-1.264 2.57c-.565.772-1.156 1.307-1.77 1.603l-.329-.923c.684-.528 1.225-1.336 1.624-2.423.398-1.087.598-2.328.598-3.722v-.158c0-1.266-.174-2.42-.52-3.462-.346-1.041-.843-1.876-1.49-2.505l-.212-.192.328-.93c.583.283 1.149.784 1.695 1.504a8.16 8.16 0 0 1 1.258 2.417c.292.891.456 1.81.492 2.758l.007.534z" fill="#000"/><g transform="translate(152 109)"><use stroke="#FFF" mask="url(#p)" stroke-width="4" fill="#FEF6E0" xlink:href="#a"/><use stroke="#FFF" mask="url(#q)" stroke-width="4" fill="#E2F3EB" xlink:href="#b"/><path d="M204.433 276.124h-1.67V279h-.943v-7.11h2.354c.8 0 1.417.183 1.848.548.431.364.647.895.647 1.591 0 .443-.12.829-.359 1.158-.24.328-.572.574-.998.737l1.67 3.017V279h-1.006l-1.543-2.876zm-1.67-.767h1.44c.466 0 .836-.12 1.111-.36.275-.242.413-.564.413-.968 0-.44-.131-.776-.394-1.01-.262-.235-.64-.354-1.135-.357h-1.435v2.695zm7.164 3.74c-.716 0-1.299-.235-1.748-.705-.45-.47-.674-1.1-.674-1.887v-.166c0-.524.1-.992.3-1.404.2-.412.48-.734.84-.967a2.12 2.12 0 0 1 1.17-.349c.687 0 1.22.226 1.601.679.381.452.572 1.1.572 1.943v.376h-3.58c.014.521.166.942.457 1.262.292.321.662.481 1.111.481.319 0 .59-.065.81-.195.222-.13.416-.303.582-.518l.551.43c-.442.68-1.106 1.02-1.992 1.02zm-.112-4.736c-.365 0-.67.133-.918.398-.247.266-.4.637-.46 1.116h2.647v-.068c-.026-.46-.15-.815-.37-1.067-.222-.253-.521-.379-.9-.379zm2.897 1.953c0-.823.19-1.478.571-1.965.381-.487.886-.73 1.514-.73.644 0 1.147.228 1.509.684l.044-.586h.825v5.156c0 .684-.203 1.222-.608 1.616-.405.394-.95.591-1.633.591-.381 0-.754-.081-1.119-.244-.364-.163-.643-.386-.835-.669l.47-.542c.387.479.86.718 1.42.718.44 0 .782-.124 1.028-.371.246-.248.369-.596.369-1.045v-.454c-.362.416-.855.625-1.48.625-.618 0-1.119-.25-1.501-.747-.383-.498-.574-1.177-.574-2.037zm.908.103c0 .596.122 1.064.366 1.404.244.34.586.51 1.026.51.57 0 .988-.259 1.255-.776v-2.412c-.277-.505-.692-.757-1.246-.757-.44 0-.782.17-1.03.512-.247.342-.371.848-.371 1.519zm5.792 2.583h-.903v-5.283h.903V279zm-.976-6.685a.54.54 0 0 1 .134-.37c.09-.102.222-.152.398-.152.176 0 .31.05.4.151a.53.53 0 0 1 .137.371.516.516 0 0 1-.136.367c-.092.097-.225.146-.4.146-.177 0-.31-.049-.399-.146a.521.521 0 0 1-.134-.367zm2.077 3.995c0-.518.101-.984.305-1.397.203-.413.486-.732.85-.957a2.313 2.313 0 0 1 1.242-.337c.72 0 1.301.25 1.746.747.444.498.666 1.16.666 1.988v.063c0 .514-.098.976-.295 1.384a2.243 2.243 0 0 1-.845.955 2.34 2.34 0 0 1-1.262.342c-.716 0-1.297-.25-1.741-.747-.444-.498-.666-1.158-.666-1.978v-.063zm.908.107c0 .586.136 1.056.407 1.411.272.355.636.532 1.092.532.459 0 .823-.18 1.094-.54.27-.359.405-.863.405-1.51 0-.58-.138-1.05-.413-1.41a1.312 1.312 0 0 0-1.096-.539 1.3 1.3 0 0 0-1.08.533c-.273.354-.41.862-.41 1.523zm5.782-2.7l.03.664a1.925 1.925 0 0 1 1.582-.762c1.116 0 1.68.63 1.69 1.89V279h-.904v-3.496c-.003-.381-.09-.663-.261-.845-.171-.182-.437-.273-.799-.273-.293 0-.55.078-.771.234a1.592 1.592 0 0 0-.518.615V279h-.903v-5.283h.854zm-.77 23.407h-1.67V300h-.943v-7.11h2.354c.8 0 1.417.183 1.848.548.431.364.647.895.647 1.591 0 .443-.12.829-.359 1.158-.24.328-.572.574-.998.737l1.67 3.017V300h-1.006l-1.543-2.876zm-1.67-.767h1.44c.466 0 .836-.12 1.111-.36.275-.242.413-.564.413-.968 0-.44-.131-.776-.394-1.01-.262-.235-.64-.354-1.135-.357h-1.435v2.695zm7.164 3.74c-.716 0-1.299-.235-1.748-.705-.45-.47-.674-1.1-.674-1.887v-.166c0-.524.1-.992.3-1.404.2-.412.48-.734.84-.967a2.12 2.12 0 0 1 1.17-.349c.687 0 1.22.226 1.601.679.381.452.572 1.1.572 1.943v.376h-3.58c.014.521.166.942.457 1.262.292.321.662.481 1.111.481.319 0 .59-.065.81-.195.222-.13.416-.303.582-.518l.551.43c-.442.68-1.106 1.02-1.992 1.02zm-.112-4.736c-.365 0-.67.133-.918.398-.247.266-.4.637-.46 1.116h2.647v-.068c-.026-.46-.15-.815-.37-1.067-.222-.253-.521-.379-.9-.379zm2.897 1.953c0-.823.19-1.478.571-1.965.381-.487.886-.73 1.514-.73.644 0 1.147.228 1.509.684l.044-.586h.825v5.156c0 .684-.203 1.222-.608 1.616-.405.394-.95.591-1.633.591-.381 0-.754-.081-1.119-.244-.364-.163-.643-.386-.835-.669l.47-.542c.387.479.86.718 1.42.718.44 0 .782-.124 1.028-.371.246-.248.369-.596.369-1.045v-.454c-.362.416-.855.625-1.48.625-.618 0-1.119-.25-1.501-.747-.383-.498-.574-1.177-.574-2.037zm.908.103c0 .596.122 1.064.366 1.404.244.34.586.51 1.026.51.57 0 .988-.259 1.255-.776v-2.412c-.277-.505-.692-.757-1.246-.757-.44 0-.782.17-1.03.512-.247.342-.371.848-.371 1.519zm5.792 2.583h-.903v-5.283h.903V300zm-.976-6.685a.54.54 0 0 1 .134-.37c.09-.102.222-.152.398-.152.176 0 .31.05.4.151a.53.53 0 0 1 .137.371.516.516 0 0 1-.136.367c-.092.097-.225.146-.4.146-.177 0-.31-.049-.399-.146a.521.521 0 0 1-.134-.367zm2.077 3.995c0-.518.101-.984.305-1.397.203-.413.486-.732.85-.957a2.313 2.313 0 0 1 1.242-.337c.72 0 1.301.25 1.746.747.444.498.666 1.16.666 1.988v.063c0 .514-.098.976-.295 1.384a2.243 2.243 0 0 1-.845.955 2.34 2.34 0 0 1-1.262.342c-.716 0-1.297-.25-1.741-.747-.444-.498-.666-1.158-.666-1.978v-.063zm.908.107c0 .586.136 1.056.407 1.411.272.355.636.532 1.092.532.459 0 .823-.18 1.094-.54.27-.359.405-.863.405-1.51 0-.58-.138-1.05-.413-1.41a1.312 1.312 0 0 0-1.096-.539 1.3 1.3 0 0 0-1.08.533c-.273.354-.41.862-.41 1.523zm5.782-2.7l.03.664a1.925 1.925 0 0 1 1.582-.762c1.116 0 1.68.63 1.69 1.89V300h-.904v-3.496c-.003-.381-.09-.663-.261-.845-.171-.182-.437-.273-.799-.273-.293 0-.55.078-.771.234a1.592 1.592 0 0 0-.518.615V300h-.903v-5.283h.854z" fill="#757575"/><use stroke="#FFF" mask="url(#r)" stroke-width="4" fill="#B3E5FC" xlink:href="#c"/><g transform="translate(43 66)"><use stroke="#FFF" mask="url(#s)" stroke-width="4" fill="#E1F5FE" xlink:href="#d"/><path d="M62.528 18.233h4.068V19H61.42v-.703l3.896-5.635h-3.833v-.771h4.956v.688l-3.91 5.654zm4.694-1.923c0-.518.102-.984.305-1.397.204-.413.487-.732.85-.957a2.313 2.313 0 0 1 1.243-.337c.719 0 1.3.25 1.745.747.445.498.667 1.16.667 1.988v.063c0 .514-.099.976-.296 1.384a2.243 2.243 0 0 1-.844.955 2.34 2.34 0 0 1-1.263.342c-.716 0-1.296-.25-1.74-.747-.445-.498-.667-1.158-.667-1.978v-.063zm.908.107c0 .586.136 1.056.408 1.411.272.355.636.532 1.091.532.46 0 .824-.18 1.094-.54.27-.359.405-.863.405-1.51 0-.58-.137-1.05-.412-1.41a1.312 1.312 0 0 0-1.096-.539 1.3 1.3 0 0 0-1.08.533c-.273.354-.41.862-.41 1.523zm5.889-2.7l.03.664a1.925 1.925 0 0 1 1.581-.762c1.117 0 1.68.63 1.69 1.89V19h-.904v-3.496c-.003-.381-.09-.663-.26-.845-.172-.182-.438-.273-.8-.273a1.3 1.3 0 0 0-.77.234 1.592 1.592 0 0 0-.518.615V19h-.903v-5.283h.854zm6.855 5.38c-.716 0-1.298-.235-1.748-.705-.449-.47-.673-1.1-.673-1.887v-.166c0-.524.1-.992.3-1.404.2-.412.48-.734.84-.967a2.12 2.12 0 0 1 1.17-.349c.686 0 1.22.226 1.6.679.382.452.572 1.1.572 1.943v.376h-3.58c.014.521.166.942.457 1.262.292.321.662.481 1.111.481.32 0 .59-.065.81-.195.222-.13.416-.303.582-.518l.552.43c-.443.68-1.107 1.02-1.993 1.02zm-.112-4.736c-.364 0-.67.133-.918.398-.247.266-.4.637-.459 1.116h2.647v-.068c-.026-.46-.15-.815-.371-1.067-.222-.253-.521-.379-.899-.379z" fill="#757575"/></g><path d="M84.932 100.773c-.422.496-1.041.744-1.858.744-.676 0-1.19-.196-1.544-.589-.353-.392-.532-.973-.536-1.743V95.06h1.084v4.096c0 .96.39 1.441 1.172 1.441.828 0 1.379-.308 1.652-.926v-4.61h1.084v6.339h-1.03l-.024-.627zm6.392-1.055c0-.293-.11-.52-.33-.682-.222-.162-.606-.302-1.155-.42-.549-.116-.985-.257-1.307-.421-.322-.164-.56-.36-.715-.586a1.402 1.402 0 0 1-.231-.809c0-.52.22-.959.66-1.318.439-.36 1-.539 1.684-.539.718 0 1.301.186 1.749.557.447.37.67.845.67 1.423h-1.09c0-.296-.125-.552-.377-.767-.252-.215-.57-.322-.952-.322-.395 0-.703.086-.926.257a.812.812 0 0 0-.334.674c0 .262.103.46.31.592.208.133.582.26 1.123.38.54.122.979.267 1.315.434.336.168.585.37.747.607.162.236.243.524.243.864a1.62 1.62 0 0 1-.68 1.362c-.453.342-1.04.513-1.763.513-.508 0-.957-.09-1.348-.27a2.193 2.193 0 0 1-.917-.752 1.815 1.815 0 0 1-.33-1.046h1.083c.02.363.165.651.437.864.271.213.63.32 1.075.32.41 0 .74-.084.987-.25.248-.166.372-.387.372-.665zm4.752-1.5h-2.86v-.884h2.86v.884zm3.598 2.414a1.56 1.56 0 0 0 1.013-.351c.29-.235.45-.527.481-.879h1.025c-.02.363-.144.709-.375 1.037a2.47 2.47 0 0 1-.922.785 2.663 2.663 0 0 1-1.222.293c-.863 0-1.55-.288-2.06-.864-.51-.576-.764-1.364-.764-2.364v-.182c0-.617.113-1.166.34-1.646a2.59 2.59 0 0 1 .975-1.12c.424-.265.925-.398 1.503-.398.71 0 1.302.213 1.772.639.471.425.722.978.753 1.658h-1.025a1.494 1.494 0 0 0-.466-1.01 1.45 1.45 0 0 0-1.034-.396c-.55 0-.978.198-1.28.594-.303.397-.454.97-.454 1.72v.205c0 .73.15 1.293.45 1.688.302.394.731.591 1.29.591zm6.369.885c-.86 0-1.559-.282-2.098-.846-.539-.565-.808-1.32-.808-2.265v-.2c0-.628.12-1.19.36-1.684s.576-.88 1.008-1.16c.432-.28.9-.419 1.403-.419.824 0 1.465.271 1.922.814.457.543.686 1.32.686 2.332v.452h-4.295c.015.625.198 1.13.548 1.514.35.385.793.577 1.333.577.382 0 .707-.078.972-.234.266-.156.498-.363.697-.621l.663.516c-.532.816-1.329 1.224-2.391 1.224zm-.135-5.683c-.437 0-.804.159-1.101.477-.297.318-.48.765-.551 1.339h3.176v-.082c-.032-.55-.18-.978-.446-1.28-.265-.303-.625-.454-1.078-.454zm4.887-.774l.035.797c.484-.61 1.117-.914 1.899-.914 1.34 0 2.015.756 2.027 2.268v4.189h-1.084v-4.195c-.004-.457-.109-.795-.314-1.014-.205-.219-.524-.328-.958-.328-.351 0-.66.094-.925.281a1.91 1.91 0 0 0-.621.738v4.518h-1.084v-6.34h1.025zm7.066-1.535v1.535h1.184v.838h-1.184v3.932c0 .254.053.444.159.571.105.127.285.19.539.19.125 0 .296-.023.515-.07v.879a3.143 3.143 0 0 1-.832.117c-.484 0-.85-.146-1.096-.44-.246-.292-.369-.708-.369-1.247v-3.932h-1.154v-.838h1.154v-1.535h1.084zm5.514 2.508a3.248 3.248 0 0 0-.533-.041c-.711 0-1.194.303-1.447.908v4.5h-1.084v-6.34h1.054l.018.733c.355-.567.86-.85 1.512-.85.21 0 .37.027.48.082v1.008zm4.676 5.367c-.063-.125-.113-.348-.153-.668-.503.523-1.105.785-1.804.785-.625 0-1.138-.177-1.538-.53-.4-.354-.6-.802-.6-1.345 0-.66.25-1.173.752-1.538s1.208-.548 2.118-.548h1.055v-.498c0-.379-.113-.68-.34-.905-.227-.225-.56-.337-1.002-.337-.387 0-.71.098-.973.293-.261.195-.392.432-.392.709h-1.09c0-.316.112-.622.337-.917a2.3 2.3 0 0 1 .914-.7 3.075 3.075 0 0 1 1.269-.258c.73 0 1.302.183 1.716.548.414.365.63.868.645 1.509v2.918c0 .582.074 1.044.222 1.388v.094h-1.136zm-1.799-.826c.34 0 .662-.088.967-.264.304-.176.525-.404.662-.685v-1.301h-.85c-1.328 0-1.992.388-1.992 1.166 0 .34.113.605.34.797.226.191.517.287.873.287zm5.59.826h-1.084v-9h1.084v9zm8.156 0h-1.09v-7.225l-2.185.803v-.984l3.105-1.166h.17v8.572zm5.543-3.182h-2.86v-.884h2.86v.884zm4.969 3.182c-.063-.125-.114-.348-.153-.668-.503.523-1.105.785-1.804.785-.625 0-1.138-.177-1.538-.53-.4-.354-.6-.802-.6-1.345 0-.66.25-1.173.752-1.538s1.208-.548 2.118-.548h1.055v-.498c0-.379-.113-.68-.34-.905-.227-.225-.56-.337-1.002-.337-.387 0-.71.098-.973.293-.261.195-.392.432-.392.709h-1.09c0-.316.112-.622.337-.917a2.3 2.3 0 0 1 .914-.7 3.075 3.075 0 0 1 1.268-.258c.731 0 1.303.183 1.717.548.414.365.63.868.645 1.509v2.918c0 .582.074 1.044.222 1.388v.094h-1.136zm-1.8-.826c.34 0 .663-.088.968-.264.304-.176.525-.404.662-.685v-1.301h-.85c-1.328 0-1.992.388-1.992 1.166 0 .34.113.605.34.797.226.191.517.287.873.287z" fill="#212121"/><g transform="translate(53 111)"><use stroke="#E3F2FD" mask="url(#t)" stroke-width="2" fill="#FFF" xlink:href="#e"/><path d="M58.814 26.906l2.438-7.037h1.23L59.318 28.4h-.996l-3.158-8.531h1.225l2.425 7.037zm6.264-7.037l2.79 6.96 2.788-6.96h1.46V28.4H70.99v-3.322l.106-3.586-2.801 6.908h-.861l-2.795-6.89.111 3.568V28.4h-1.125v-8.531h1.453zm12.545 6.85c0-.294-.11-.521-.331-.683-.22-.162-.605-.302-1.154-.42-.55-.116-.985-.257-1.307-.421-.322-.164-.56-.36-.715-.586a1.402 1.402 0 0 1-.231-.809c0-.52.22-.959.659-1.318.44-.36 1-.539 1.685-.539.718 0 1.301.186 1.749.557.447.37.67.845.67 1.423h-1.09c0-.296-.125-.552-.377-.767-.252-.215-.57-.322-.952-.322-.395 0-.704.086-.926.257a.812.812 0 0 0-.334.674c0 .262.103.46.31.592.207.133.581.26 1.122.38.541.122.98.267 1.316.434.336.168.585.37.747.607.162.236.243.524.243.864 0 .567-.227 1.02-.68 1.362-.453.342-1.04.513-1.763.513-.508 0-.957-.09-1.348-.27a2.193 2.193 0 0 1-.917-.752 1.815 1.815 0 0 1-.331-1.046h1.084c.02.363.165.651.436.864.272.213.63.32 1.076.32.41 0 .739-.084.987-.25.248-.166.372-.387.372-.665z" fill="#212121"/><path fill="#FFF" d="M9 8h32v32H9z"/><g stroke-width="2"><g transform="translate(21.088 19.054)"><use stroke="url(#u)" mask="url(#v)" fill="#616161" xlink:href="#f"/><use stroke="url(#w)" mask="url(#x)" xlink:href="#f"/></g><g transform="translate(21.088 19.054)"><use stroke="url(#u)" mask="url(#y)" fill="#616161" xlink:href="#g"/><use stroke="url(#w)" mask="url(#z)" xlink:href="#g"/></g><g transform="translate(21.088 19.054)"><use stroke="url(#u)" mask="url(#A)" fill="#616161" xlink:href="#h"/><use stroke="url(#w)" mask="url(#B)" xlink:href="#h"/></g><g transform="translate(21.088 19.054)"><use stroke="url(#u)" mask="url(#C)" fill="#616161" xlink:href="#i"/><use stroke="url(#w)" mask="url(#D)" xlink:href="#i"/></g></g><path d="M38.253 19.177v-.95a.585.585 0 0 0-.583-.582h-2.968v-2.772a.652.652 0 0 0-.65-.648h-2.785v-2.977a.584.584 0 0 0-.582-.581h-.951a.584.584 0 0 0-.583.582v2.976h-3.134v-2.977a.584.584 0 0 0-.582-.581h-.951a.585.585 0 0 0-.583.582v2.976h-3.134v-2.977a.584.584 0 0 0-.582-.581h-.951a.585.585 0 0 0-.583.582v2.976h-2.784a.651.651 0 0 0-.65.648v2.772h-2.968a.585.585 0 0 0-.582.582v.95c0 .32.262.582.582.582h2.968v3.132l-2.968-.001a.584.584 0 0 0-.582.582v.95c0 .32.262.581.582.581h2.968v3.132H12.25a.584.584 0 0 0-.582.582v.95c0 .32.262.581.582.581h2.968v2.773c0 .356.293.649.65.649h2.785v2.975c0 .32.262.582.583.582h.95c.32 0 .581-.262.581-.582l.001-2.975h3.134v2.975c0 .32.263.582.583.582h.95c.32 0 .582-.262.582-.582l.001-2.975h3.134v2.975c0 .32.263.582.583.582h.95c.32 0 .583-.262.583-.582V33.67h2.785c.357 0 .65-.293.65-.649v-2.773h2.968c.32 0 .583-.261.583-.582v-.949a.584.584 0 0 0-.583-.582h-2.968v-3.132h2.968c.32 0 .583-.261.583-.581v-.949a.584.584 0 0 0-.583-.582h-2.968v-3.132h2.968c.32 0 .583-.263.583-.582z" fill="#616161"/><path fill="#FFF" d="M32.447 31.434H17.136V16.137l15.313-.001z"/><path d="M22.087 20.511a.578.578 0 0 0-.576.576v5.405c0 .315.26.575.576.575h5.41c.317 0 .577-.26.577-.575v-5.405a.578.578 0 0 0-.576-.576h-5.41z" fill="#616161"/></g><g transform="translate(53 165)"><use stroke="#E3F2FD" mask="url(#E)" stroke-width="2" fill="#FFF" xlink:href="#j"/><path d="M55.99 27.4v-8.531h2.408c.743 0 1.399.164 1.97.492.57.328 1.01.795 1.32 1.4.311.606.468 1.301.472 2.086v.545c0 .805-.155 1.51-.466 2.115a3.277 3.277 0 0 1-1.33 1.395c-.576.324-1.247.49-2.012.498H55.99zm1.125-7.605v6.685H58.3c.867 0 1.542-.27 2.024-.809.483-.539.724-1.306.724-2.302v-.498c0-.97-.228-1.722-.683-2.26-.455-.536-1.1-.809-1.936-.816h-1.313zm7.752 7.605h-1.084v-6.34h1.084v6.34zm-1.172-8.021a.65.65 0 0 1 .161-.446c.108-.12.267-.181.478-.181.21 0 .371.06.48.181a.64.64 0 0 1 .165.446.62.62 0 0 1-.165.439c-.109.117-.27.176-.48.176-.211 0-.37-.059-.478-.176a.626.626 0 0 1-.16-.44zm6.598 6.34c0-.294-.11-.521-.331-.683-.22-.162-.606-.302-1.154-.42-.55-.116-.985-.257-1.307-.421-.322-.164-.56-.36-.715-.586a1.402 1.402 0 0 1-.231-.809c0-.52.22-.959.659-1.318.44-.36 1-.539 1.684-.539.72 0 1.302.186 1.75.557.447.37.67.845.67 1.423h-1.09c0-.296-.125-.552-.377-.767-.252-.215-.57-.322-.953-.322-.394 0-.703.086-.925.257a.812.812 0 0 0-.334.674c0 .262.103.46.31.592.207.133.581.26 1.122.38.541.122.98.267 1.316.434.336.168.585.37.747.607.162.236.243.524.243.864 0 .567-.227 1.02-.68 1.362-.453.342-1.04.513-1.763.513-.508 0-.957-.09-1.348-.27a2.193 2.193 0 0 1-.917-.752 1.815 1.815 0 0 1-.331-1.046h1.084c.02.363.165.651.436.864.272.213.63.32 1.076.32.41 0 .739-.084.987-.25.248-.166.372-.387.372-.665zm4.266-1.255l-.68.71V27.4h-1.084v-9h1.084v5.443l.58-.697 1.975-2.086h1.318l-2.467 2.649L78.04 27.4h-1.271l-2.21-2.936zm8.004 1.254c0-.293-.11-.52-.332-.682-.22-.162-.605-.302-1.154-.42-.549-.116-.984-.257-1.306-.421-.323-.164-.561-.36-.715-.586a1.402 1.402 0 0 1-.232-.809c0-.52.22-.959.66-1.318.439-.36 1-.539 1.684-.539.719 0 1.302.186 1.749.557.447.37.67.845.67 1.423h-1.089c0-.296-.126-.552-.378-.767-.252-.215-.57-.322-.952-.322-.395 0-.703.086-.926.257a.812.812 0 0 0-.334.674c0 .262.104.46.31.592.208.133.582.26 1.123.38.54.122.98.267 1.315.434.336.168.585.37.747.607.162.236.243.524.243.864a1.62 1.62 0 0 1-.68 1.362c-.452.342-1.04.513-1.763.513-.508 0-.957-.09-1.348-.27a2.193 2.193 0 0 1-.917-.752 1.815 1.815 0 0 1-.33-1.046h1.083c.02.363.165.651.437.864.271.213.63.32 1.075.32.41 0 .74-.084.987-.25.248-.166.373-.387.373-.665z" fill="#212121"/><path fill="#FFF" d="M10 10h28v28H10z"/><path d="M12.333 33.333h23.334v-4.666H12.333v4.666zm2.334-3.5H17v2.334h-2.333v-2.334zm-2.334-15.166v4.666h23.334v-4.666H12.333zm4.667 3.5h-2.333v-2.334H17v2.334zm-4.667 8.166h23.334v-4.666H12.333v4.666zm2.334-3.5H17v2.334h-2.333v-2.334z" fill="#616161"/></g><g transform="translate(200 66)"><use stroke="#FFF" mask="url(#F)" stroke-width="4" fill="#E1F5FE" xlink:href="#k"/><path d="M63.528 18.233h4.068V19H62.42v-.703l3.896-5.635h-3.833v-.771h4.956v.688l-3.91 5.654zm4.694-1.923c0-.518.102-.984.305-1.397.204-.413.487-.732.85-.957a2.313 2.313 0 0 1 1.243-.337c.719 0 1.3.25 1.745.747.445.498.667 1.16.667 1.988v.063c0 .514-.099.976-.296 1.384a2.243 2.243 0 0 1-.844.955 2.34 2.34 0 0 1-1.263.342c-.716 0-1.296-.25-1.74-.747-.445-.498-.667-1.158-.667-1.978v-.063zm.908.107c0 .586.136 1.056.408 1.411.272.355.636.532 1.091.532.46 0 .824-.18 1.094-.54.27-.359.405-.863.405-1.51 0-.58-.137-1.05-.412-1.41a1.312 1.312 0 0 0-1.096-.539 1.3 1.3 0 0 0-1.08.533c-.273.354-.41.862-.41 1.523zm5.889-2.7l.03.664a1.925 1.925 0 0 1 1.581-.762c1.117 0 1.68.63 1.69 1.89V19h-.904v-3.496c-.003-.381-.09-.663-.26-.845-.172-.182-.438-.273-.8-.273a1.3 1.3 0 0 0-.77.234 1.592 1.592 0 0 0-.518.615V19h-.903v-5.283h.854zm6.855 5.38c-.716 0-1.298-.235-1.748-.705-.449-.47-.673-1.1-.673-1.887v-.166c0-.524.1-.992.3-1.404.2-.412.48-.734.84-.967a2.12 2.12 0 0 1 1.17-.349c.686 0 1.22.226 1.6.679.382.452.572 1.1.572 1.943v.376h-3.58c.014.521.166.942.457 1.262.292.321.662.481 1.111.481.32 0 .59-.065.81-.195.222-.13.416-.303.582-.518l.552.43c-.443.68-1.107 1.02-1.993 1.02zm-.112-4.736c-.364 0-.67.133-.918.398-.247.266-.4.637-.459 1.116h2.647v-.068c-.026-.46-.15-.815-.371-1.067-.222-.253-.521-.379-.899-.379z" fill="#757575"/></g><path d="M241.83 100.773c-.423.496-1.042.744-1.858.744-.676 0-1.19-.196-1.544-.589-.354-.392-.532-.973-.536-1.743V95.06h1.084v4.096c0 .96.39 1.441 1.171 1.441.829 0 1.38-.308 1.653-.926v-4.61h1.084v6.339h-1.031l-.024-.627zm6.392-1.055c0-.293-.11-.52-.331-.682-.221-.162-.606-.302-1.155-.42-.549-.116-.984-.257-1.306-.421-.323-.164-.56-.36-.715-.586a1.402 1.402 0 0 1-.232-.809c0-.52.22-.959.66-1.318.439-.36 1-.539 1.684-.539.719 0 1.302.186 1.75.557.446.37.67.845.67 1.423h-1.09c0-.296-.126-.552-.378-.767-.252-.215-.569-.322-.952-.322-.394 0-.703.086-.926.257a.812.812 0 0 0-.334.674c0 .262.104.46.31.592.208.133.582.26 1.123.38.541.122.98.267 1.315.434.336.168.585.37.748.607.162.236.243.524.243.864 0 .567-.227 1.02-.68 1.362-.453.342-1.041.513-1.764.513-.508 0-.957-.09-1.347-.27a2.18 2.18 0 0 1-.917-.752 1.815 1.815 0 0 1-.331-1.046h1.084c.02.363.165.651.436.864.272.213.63.32 1.075.32.41 0 .74-.084.988-.25.248-.166.372-.387.372-.665zm4.752-1.5h-2.86v-.884h2.86v.884zm3.597 2.414c.387 0 .725-.117 1.014-.351.289-.235.45-.527.48-.879h1.026c-.02.363-.145.709-.375 1.037a2.47 2.47 0 0 1-.923.785 2.663 2.663 0 0 1-1.222.293c-.863 0-1.55-.288-2.06-.864-.509-.576-.764-1.364-.764-2.364v-.182c0-.617.113-1.166.34-1.646.226-.48.552-.854.976-1.12.423-.265.924-.398 1.502-.398.711 0 1.302.213 1.773.639.47.425.722.978.753 1.658h-1.026a1.494 1.494 0 0 0-.465-1.01 1.45 1.45 0 0 0-1.035-.396c-.55 0-.977.198-1.28.594-.303.397-.454.97-.454 1.72v.205c0 .73.15 1.293.451 1.688.301.394.73.591 1.29.591zm6.37.885c-.86 0-1.56-.282-2.098-.846-.54-.565-.809-1.32-.809-2.265v-.2c0-.628.12-1.19.36-1.684s.577-.88 1.008-1.16c.432-.28.9-.419 1.404-.419.824 0 1.465.271 1.922.814.457.543.685 1.32.685 2.332v.452h-4.295c.016.625.198 1.13.548 1.514.35.385.794.577 1.333.577.383 0 .707-.078.973-.234.265-.156.498-.363.697-.621l.662.516c-.531.816-1.328 1.224-2.39 1.224zm-.135-5.683c-.438 0-.805.159-1.102.477-.297.318-.48.765-.55 1.339h3.175v-.082c-.031-.55-.18-.978-.445-1.28-.266-.303-.625-.454-1.078-.454zm4.886-.774l.036.797c.484-.61 1.117-.914 1.898-.914 1.34 0 2.016.756 2.027 2.268v4.189h-1.084v-4.195c-.004-.457-.108-.795-.313-1.014-.205-.219-.525-.328-.958-.328-.352 0-.66.094-.926.281a1.91 1.91 0 0 0-.621.738v4.518h-1.084v-6.34h1.025zm7.067-1.535v1.535h1.183v.838h-1.183v3.932c0 .254.053.444.158.571.105.127.285.19.54.19.124 0 .296-.023.515-.07v.879a3.143 3.143 0 0 1-.832.117c-.485 0-.85-.146-1.096-.44-.246-.292-.37-.708-.37-1.247v-3.932h-1.153v-.838h1.154v-1.535h1.084zm5.513 2.508a3.248 3.248 0 0 0-.533-.041c-.71 0-1.193.303-1.447.908v4.5h-1.084v-6.34h1.055l.017.733c.356-.567.86-.85 1.512-.85.21 0 .371.027.48.082v1.008zm4.676 5.367c-.062-.125-.113-.348-.152-.668-.504.523-1.106.785-1.805.785-.625 0-1.137-.177-1.538-.53-.4-.354-.6-.802-.6-1.345 0-.66.25-1.173.752-1.538s1.208-.548 2.119-.548h1.054v-.498c0-.379-.113-.68-.34-.905-.226-.225-.56-.337-1.001-.337-.387 0-.711.098-.973.293-.262.195-.393.432-.393.709h-1.09c0-.316.113-.622.337-.917a2.3 2.3 0 0 1 .914-.7 3.075 3.075 0 0 1 1.269-.258c.73 0 1.303.183 1.717.548.414.365.629.868.644 1.509v2.918c0 .582.075 1.044.223 1.388v.094h-1.137zm-1.799-.826c.34 0 .663-.088.967-.264a1.59 1.59 0 0 0 .662-.685v-1.301h-.85c-1.327 0-1.991.388-1.991 1.166 0 .34.113.605.34.797.226.191.517.287.872.287zm5.59.826h-1.084v-9h1.084v9zm8.157 0h-1.09v-7.225l-2.186.803v-.984l3.106-1.166h.17v8.572zm5.542-3.182h-2.859v-.884h2.86v.884zm6.422.082c0 .97-.222 1.747-.668 2.335-.445.588-1.043.882-1.793.882-.8 0-1.42-.283-1.857-.85l-.053.733h-.996v-9h1.084v3.357c.438-.543 1.041-.814 1.81-.814.77 0 1.375.291 1.814.873.44.582.66 1.379.66 2.39v.094zm-1.084-.123c0-.738-.142-1.308-.427-1.71-.286-.403-.696-.604-1.23-.604-.716 0-1.23.332-1.542.996v2.742c.332.664.85.996 1.553.996.52 0 .924-.2 1.213-.603.289-.403.433-1.008.433-1.817z" fill="#212121"/><g transform="translate(200 121)"><use stroke="#FFF" mask="url(#G)" stroke-width="4" fill="#E1F5FE" xlink:href="#l"/><path d="M63.528 18.233h4.068V19H62.42v-.703l3.896-5.635h-3.833v-.771h4.956v.688l-3.91 5.654zm4.694-1.923c0-.518.102-.984.305-1.397.204-.413.487-.732.85-.957a2.313 2.313 0 0 1 1.243-.337c.719 0 1.3.25 1.745.747.445.498.667 1.16.667 1.988v.063c0 .514-.099.976-.296 1.384a2.243 2.243 0 0 1-.844.955 2.34 2.34 0 0 1-1.263.342c-.716 0-1.296-.25-1.74-.747-.445-.498-.667-1.158-.667-1.978v-.063zm.908.107c0 .586.136 1.056.408 1.411.272.355.636.532 1.091.532.46 0 .824-.18 1.094-.54.27-.359.405-.863.405-1.51 0-.58-.137-1.05-.412-1.41a1.312 1.312 0 0 0-1.096-.539 1.3 1.3 0 0 0-1.08.533c-.273.354-.41.862-.41 1.523zm5.889-2.7l.03.664a1.925 1.925 0 0 1 1.581-.762c1.117 0 1.68.63 1.69 1.89V19h-.904v-3.496c-.003-.381-.09-.663-.26-.845-.172-.182-.438-.273-.8-.273a1.3 1.3 0 0 0-.77.234 1.592 1.592 0 0 0-.518.615V19h-.903v-5.283h.854zm6.855 5.38c-.716 0-1.298-.235-1.748-.705-.449-.47-.673-1.1-.673-1.887v-.166c0-.524.1-.992.3-1.404.2-.412.48-.734.84-.967a2.12 2.12 0 0 1 1.17-.349c.686 0 1.22.226 1.6.679.382.452.572 1.1.572 1.943v.376h-3.58c.014.521.166.942.457 1.262.292.321.662.481 1.111.481.32 0 .59-.065.81-.195.222-.13.416-.303.582-.518l.552.43c-.443.68-1.107 1.02-1.993 1.02zm-.112-4.736c-.364 0-.67.133-.918.398-.247.266-.4.637-.459 1.116h2.647v-.068c-.026-.46-.15-.815-.371-1.067-.222-.253-.521-.379-.899-.379z" fill="#757575"/></g><path d="M242.055 155.773c-.422.496-1.041.744-1.858.744-.676 0-1.19-.196-1.544-.589-.353-.392-.532-.973-.536-1.743v-4.125h1.084v4.096c0 .96.39 1.441 1.172 1.441.828 0 1.379-.308 1.652-.926v-4.61h1.084v6.339h-1.03l-.024-.627zm6.392-1.055c0-.293-.11-.52-.33-.682-.221-.162-.606-.302-1.155-.42-.549-.116-.984-.257-1.307-.421-.322-.164-.56-.36-.715-.586a1.402 1.402 0 0 1-.231-.809c0-.52.22-.959.66-1.318.439-.36 1-.539 1.684-.539.718 0 1.301.186 1.749.557.447.37.67.845.67 1.423h-1.09c0-.296-.125-.552-.377-.767-.252-.215-.57-.322-.952-.322-.395 0-.703.086-.926.257a.812.812 0 0 0-.334.674c0 .262.103.46.31.592.208.133.582.26 1.123.38.54.122.98.267 1.315.434.336.168.585.37.747.607.162.236.243.524.243.864a1.62 1.62 0 0 1-.68 1.362c-.453.342-1.04.513-1.763.513-.508 0-.957-.09-1.348-.27a2.193 2.193 0 0 1-.917-.752 1.815 1.815 0 0 1-.33-1.046h1.083c.02.363.165.651.437.864.271.213.63.32 1.075.32.41 0 .74-.084.987-.25.248-.166.372-.387.372-.665zm4.752-1.5h-2.86v-.884h2.86v.884zm3.598 2.414c.387 0 .724-.117 1.014-.351.289-.235.449-.527.48-.879h1.025c-.02.363-.144.709-.375 1.037a2.47 2.47 0 0 1-.922.785 2.663 2.663 0 0 1-1.222.293c-.863 0-1.55-.288-2.06-.864-.51-.576-.764-1.364-.764-2.364v-.182c0-.617.113-1.166.34-1.646a2.59 2.59 0 0 1 .975-1.12c.424-.265.925-.398 1.503-.398.711 0 1.302.213 1.772.639.471.425.722.978.753 1.658h-1.025a1.494 1.494 0 0 0-.466-1.01 1.45 1.45 0 0 0-1.034-.396c-.55 0-.978.198-1.28.594-.303.397-.454.97-.454 1.72v.205c0 .73.15 1.293.45 1.688.302.394.731.591 1.29.591zm6.369.885c-.86 0-1.559-.282-2.098-.846-.539-.565-.808-1.32-.808-2.265v-.2c0-.628.12-1.19.36-1.684s.576-.88 1.008-1.16c.432-.28.9-.419 1.403-.419.824 0 1.465.271 1.922.814.457.543.686 1.32.686 2.332v.452h-4.295c.015.625.198 1.13.548 1.514.35.385.794.577 1.333.577.382 0 .707-.078.972-.234.266-.156.498-.363.698-.621l.662.516c-.532.816-1.328 1.224-2.391 1.224zm-.135-5.683c-.437 0-.804.159-1.101.477-.297.318-.48.765-.551 1.339h3.176v-.082c-.032-.55-.18-.978-.446-1.28-.265-.303-.625-.454-1.078-.454zm4.887-.774l.035.797c.485-.61 1.117-.914 1.899-.914 1.34 0 2.015.756 2.027 2.268v4.189h-1.084v-4.195c-.004-.457-.108-.795-.314-1.014-.205-.219-.524-.328-.958-.328-.351 0-.66.094-.925.281a1.91 1.91 0 0 0-.621.738v4.518h-1.084v-6.34h1.025zm7.066-1.535v1.535h1.184v.838h-1.184v3.932c0 .254.053.444.159.571.105.127.285.19.539.19.125 0 .297-.023.515-.07v.879a3.143 3.143 0 0 1-.832.117c-.484 0-.85-.146-1.095-.44-.247-.292-.37-.708-.37-1.247v-3.932h-1.154v-.838h1.154v-1.535h1.084zm5.514 2.508a3.248 3.248 0 0 0-.533-.041c-.711 0-1.194.303-1.447.908v4.5h-1.084v-6.34h1.054l.018.733c.355-.567.86-.85 1.512-.85.21 0 .37.027.48.082v1.008zm4.676 5.367c-.063-.125-.113-.348-.153-.668-.503.523-1.105.785-1.804.785-.625 0-1.138-.177-1.538-.53-.4-.354-.6-.802-.6-1.345 0-.66.25-1.173.752-1.538s1.208-.548 2.118-.548h1.055v-.498c0-.379-.113-.68-.34-.905-.227-.225-.56-.337-1.002-.337-.387 0-.71.098-.973.293-.261.195-.392.432-.392.709h-1.09c0-.316.112-.622.337-.917a2.3 2.3 0 0 1 .914-.7 3.075 3.075 0 0 1 1.269-.258c.73 0 1.302.183 1.716.548.414.365.63.868.645 1.509v2.918c0 .582.074 1.044.223 1.388v.094h-1.137zm-1.799-.826c.34 0 .662-.088.967-.264.304-.176.525-.404.662-.685v-1.301h-.85c-1.328 0-1.992.388-1.992 1.166 0 .34.113.605.34.797.227.191.518.287.873.287zm5.59.826h-1.084v-9h1.084v9zm8.156 0h-1.09v-7.225l-2.185.803v-.984l3.105-1.166h.17v8.572zm5.543-3.182h-2.86v-.884h2.86v.884zm3.598 2.414c.386 0 .724-.117 1.013-.351.29-.235.45-.527.48-.879h1.026c-.02.363-.144.709-.375 1.037a2.47 2.47 0 0 1-.923.785 2.663 2.663 0 0 1-1.221.293c-.864 0-1.55-.288-2.06-.864-.51-.576-.764-1.364-.764-2.364v-.182c0-.617.113-1.166.34-1.646a2.59 2.59 0 0 1 .975-1.12c.424-.265.925-.398 1.503-.398.71 0 1.302.213 1.772.639.471.425.722.978.753 1.658h-1.025a1.494 1.494 0 0 0-.466-1.01 1.45 1.45 0 0 0-1.034-.396c-.55 0-.978.198-1.28.594-.303.397-.455.97-.455 1.72v.205c0 .73.15 1.293.452 1.688.3.394.73.591 1.289.591z" fill="#212121"/><g transform="translate(200 177)"><use stroke="#FFF" mask="url(#H)" stroke-width="4" fill="#E1F5FE" xlink:href="#m"/><path d="M63.528 18.233h4.068V19H62.42v-.703l3.896-5.635h-3.833v-.771h4.956v.688l-3.91 5.654zm4.694-1.923c0-.518.102-.984.305-1.397.204-.413.487-.732.85-.957a2.313 2.313 0 0 1 1.243-.337c.719 0 1.3.25 1.745.747.445.498.667 1.16.667 1.988v.063c0 .514-.099.976-.296 1.384a2.243 2.243 0 0 1-.844.955 2.34 2.34 0 0 1-1.263.342c-.716 0-1.296-.25-1.74-.747-.445-.498-.667-1.158-.667-1.978v-.063zm.908.107c0 .586.136 1.056.408 1.411.272.355.636.532 1.091.532.46 0 .824-.18 1.094-.54.27-.359.405-.863.405-1.51 0-.58-.137-1.05-.412-1.41a1.312 1.312 0 0 0-1.096-.539 1.3 1.3 0 0 0-1.08.533c-.273.354-.41.862-.41 1.523zm5.889-2.7l.03.664a1.925 1.925 0 0 1 1.581-.762c1.117 0 1.68.63 1.69 1.89V19h-.904v-3.496c-.003-.381-.09-.663-.26-.845-.172-.182-.438-.273-.8-.273a1.3 1.3 0 0 0-.77.234 1.592 1.592 0 0 0-.518.615V19h-.903v-5.283h.854zm6.855 5.38c-.716 0-1.298-.235-1.748-.705-.449-.47-.673-1.1-.673-1.887v-.166c0-.524.1-.992.3-1.404.2-.412.48-.734.84-.967a2.12 2.12 0 0 1 1.17-.349c.686 0 1.22.226 1.6.679.382.452.572 1.1.572 1.943v.376h-3.58c.014.521.166.942.457 1.262.292.321.662.481 1.111.481.32 0 .59-.065.81-.195.222-.13.416-.303.582-.518l.552.43c-.443.68-1.107 1.02-1.993 1.02zm-.112-4.736c-.364 0-.67.133-.918.398-.247.266-.4.637-.459 1.116h2.647v-.068c-.026-.46-.15-.815-.371-1.067-.222-.253-.521-.379-.899-.379z" fill="#757575"/></g><path d="M243.112 211.773c-.422.496-1.04.744-1.857.744-.676 0-1.19-.196-1.544-.589-.354-.392-.532-.973-.536-1.743v-4.125h1.084v4.096c0 .96.39 1.441 1.172 1.441.828 0 1.379-.308 1.652-.926v-4.61h1.084v6.339h-1.031l-.024-.627zm6.393-1.055c0-.293-.11-.52-.331-.682-.22-.162-.606-.302-1.154-.42-.55-.116-.985-.257-1.307-.421-.322-.164-.56-.36-.715-.586a1.402 1.402 0 0 1-.231-.809c0-.52.22-.959.659-1.318.44-.36 1-.539 1.684-.539.72 0 1.302.186 1.75.557.447.37.67.845.67 1.423h-1.09c0-.296-.126-.552-.377-.767-.252-.215-.57-.322-.953-.322-.394 0-.703.086-.925.257a.812.812 0 0 0-.334.674c0 .262.103.46.31.592.207.133.581.26 1.122.38.541.122.98.267 1.316.434.336.168.585.37.747.607.162.236.243.524.243.864 0 .567-.227 1.02-.68 1.362-.453.342-1.04.513-1.763.513-.508 0-.958-.09-1.348-.27a2.193 2.193 0 0 1-.917-.752 1.815 1.815 0 0 1-.331-1.046h1.084c.02.363.165.651.436.864.272.213.63.32 1.076.32.41 0 .739-.084.987-.25.248-.166.372-.387.372-.665zm4.752-1.5h-2.86v-.884h2.86v.884zm3.597 2.414c.387 0 .725-.117 1.014-.351.29-.235.45-.527.48-.879h1.026c-.02.363-.145.709-.375 1.037a2.47 2.47 0 0 1-.923.785 2.663 2.663 0 0 1-1.222.293c-.863 0-1.55-.288-2.06-.864-.509-.576-.764-1.364-.764-2.364v-.182c0-.617.114-1.166.34-1.646.227-.48.552-.854.976-1.12.424-.265.925-.398 1.503-.398.71 0 1.301.213 1.772.639.47.425.722.978.753 1.658h-1.025a1.494 1.494 0 0 0-.466-1.01 1.45 1.45 0 0 0-1.034-.396c-.551 0-.978.198-1.28.594-.303.397-.455.97-.455 1.72v.205c0 .73.15 1.293.451 1.688.301.394.73.591 1.29.591zm6.37.885c-.86 0-1.559-.282-2.098-.846-.54-.565-.809-1.32-.809-2.265v-.2c0-.628.12-1.19.36-1.684.241-.494.577-.88 1.009-1.16.431-.28.899-.419 1.403-.419.824 0 1.465.271 1.922.814.457.543.685 1.32.685 2.332v.452h-4.295c.016.625.199 1.13.548 1.514.35.385.794.577 1.333.577.383 0 .707-.078.973-.234.266-.156.498-.363.697-.621l.662.516c-.531.816-1.328 1.224-2.39 1.224zm-.135-5.683c-.438 0-.805.159-1.102.477-.297.318-.48.765-.55 1.339h3.175v-.082c-.03-.55-.18-.978-.445-1.28-.266-.303-.625-.454-1.078-.454zm4.887-.774l.035.797c.484-.61 1.117-.914 1.898-.914 1.34 0 2.016.756 2.028 2.268v4.189h-1.084v-4.195c-.004-.457-.109-.795-.314-1.014-.205-.219-.524-.328-.958-.328-.352 0-.66.094-.926.281a1.91 1.91 0 0 0-.62.738v4.518h-1.085v-6.34h1.026zm7.066-1.535v1.535h1.184v.838h-1.184v3.932c0 .254.053.444.158.571.106.127.285.19.54.19.124 0 .296-.023.515-.07v.879a3.143 3.143 0 0 1-.832.117c-.485 0-.85-.146-1.096-.44-.246-.292-.369-.708-.369-1.247v-3.932h-1.154v-.838h1.154v-1.535h1.084zm5.514 2.508a3.248 3.248 0 0 0-.534-.041c-.71 0-1.193.303-1.447.908v4.5h-1.084v-6.34h1.055l.017.733c.356-.567.86-.85 1.512-.85.211 0 .371.027.48.082v1.008zm4.675 5.367c-.062-.125-.113-.348-.152-.668-.504.523-1.105.785-1.805.785-.625 0-1.137-.177-1.538-.53-.4-.354-.6-.802-.6-1.345 0-.66.25-1.173.753-1.538.502-.365 1.208-.548 2.118-.548h1.055v-.498c0-.379-.114-.68-.34-.905-.227-.225-.56-.337-1.002-.337-.387 0-.711.098-.973.293-.262.195-.393.432-.393.709h-1.09c0-.316.113-.622.338-.917a2.3 2.3 0 0 1 .914-.7 3.075 3.075 0 0 1 1.268-.258c.73 0 1.303.183 1.717.548.414.365.629.868.645 1.509v2.918c0 .582.074 1.044.222 1.388v.094h-1.137zm-1.798-.826c.34 0 .662-.088.966-.264.305-.176.526-.404.663-.685v-1.301h-.85c-1.328 0-1.992.388-1.992 1.166 0 .34.113.605.34.797.226.191.517.287.873.287zm5.59.826h-1.085v-9h1.084v9zm8.156 0h-1.09v-7.225l-2.186.803v-.984l3.106-1.166h.17v8.572zm5.543-3.182h-2.86v-.884h2.86v.884zm1.588 3.182v-5.502h-1.002v-.838h1.002v-.65c0-.68.181-1.205.544-1.576.364-.372.877-.557 1.542-.557.25 0 .498.033.744.1l-.059.878a3.113 3.113 0 0 0-.586-.052c-.351 0-.623.102-.814.307-.192.205-.287.5-.287.882v.668h1.353v.838h-1.353v5.502h-1.084z" fill="#212121"/><g transform="translate(108 24)"><use stroke="#E0E0E0" mask="url(#I)" stroke-width="2" fill="#FFF" xlink:href="#n"/><path d="M15.913 17.197c-.965-.277-1.667-.618-2.106-1.022a1.954 1.954 0 0 1-.66-1.497c0-.672.269-1.228.806-1.667.537-.44 1.235-.66 2.095-.66.586 0 1.108.114 1.567.34.46.227.815.54 1.067.938.252.398.378.834.378 1.307h-1.131c0-.516-.164-.921-.492-1.216-.329-.295-.791-.443-1.39-.443-.554 0-.986.122-1.297.367-.31.244-.466.583-.466 1.016 0 .348.148.642.443.882.294.24.796.46 1.505.66.71.198 1.264.418 1.664.658.4.24.698.52.891.841.193.32.29.697.29 1.131 0 .691-.27 1.245-.808 1.661-.54.416-1.26.624-2.163.624a4.01 4.01 0 0 1-1.64-.337c-.508-.224-.9-.532-1.175-.923a2.252 2.252 0 0 1-.413-1.33h1.13c0 .516.191.923.572 1.222.38.299.89.448 1.526.448.594 0 1.05-.12 1.366-.363.316-.242.474-.572.474-.99 0-.418-.146-.741-.44-.97-.292-.228-.823-.454-1.593-.677zm5.906-4.072v1.535h1.184v.838h-1.184v3.932c0 .254.053.444.159.571.105.127.285.19.539.19.125 0 .296-.023.515-.07V21a3.143 3.143 0 0 1-.832.117c-.484 0-.85-.146-1.096-.44-.246-.292-.369-.708-.369-1.247v-3.932h-1.154v-.838h1.154v-1.535h1.084zM28.183 21c-.063-.125-.114-.348-.153-.668-.504.523-1.105.785-1.804.785-.625 0-1.138-.177-1.538-.53a1.718 1.718 0 0 1-.601-1.345c0-.66.25-1.173.753-1.538.502-.365 1.208-.548 2.118-.548h1.055v-.498c0-.379-.114-.68-.34-.905-.227-.225-.56-.337-1.002-.337-.387 0-.711.098-.973.293-.261.195-.392.432-.392.709h-1.09c0-.316.112-.622.337-.917a2.3 2.3 0 0 1 .914-.7 3.075 3.075 0 0 1 1.268-.258c.73 0 1.303.183 1.717.548.414.365.63.868.645 1.509v2.918c0 .582.074 1.044.222 1.388V21h-1.136zm-1.8-.826c.34 0 .663-.088.968-.264.304-.176.525-.404.662-.685v-1.301h-.85c-1.328 0-1.992.388-1.992 1.166 0 .34.113.605.34.797.226.191.517.287.873.287zm5.884-7.049v1.535h1.183v.838h-1.183v3.932c0 .254.052.444.158.571.105.127.285.19.539.19.125 0 .297-.023.515-.07V21a3.143 3.143 0 0 1-.832.117c-.484 0-.85-.146-1.095-.44-.246-.292-.37-.708-.37-1.247v-3.932h-1.154v-.838h1.155v-1.535h1.084zM35.894 21H34.81v-6.34h1.084V21zm-1.172-8.021a.65.65 0 0 1 .16-.446c.108-.12.267-.181.478-.181.211 0 .371.06.48.181a.64.64 0 0 1 .165.446.62.62 0 0 1-.164.439c-.11.117-.27.176-.48.176-.212 0-.37-.059-.478-.176a.626.626 0 0 1-.161-.44zm5.449 7.253c.387 0 .725-.117 1.014-.351.289-.235.449-.527.48-.879h1.025c-.02.363-.144.709-.375 1.037a2.47 2.47 0 0 1-.922.785 2.663 2.663 0 0 1-1.222.293c-.863 0-1.55-.288-2.06-.864-.51-.576-.764-1.364-.764-2.364v-.182c0-.617.113-1.166.34-1.646a2.59 2.59 0 0 1 .975-1.12c.424-.265.925-.398 1.503-.398.711 0 1.302.213 1.773.639.47.425.721.978.752 1.658h-1.025a1.494 1.494 0 0 0-.466-1.01 1.45 1.45 0 0 0-1.034-.396c-.55 0-.977.198-1.28.594-.303.397-.454.97-.454 1.72v.205c0 .73.15 1.293.45 1.688.302.394.731.591 1.29.591zm11.701-3.175h-3.697v3.023h4.295V21h-5.42v-8.531h5.361v.926h-4.236v2.742h3.697v.92zm3.955-.082l1.406-2.315H58.5l-2.074 3.135L58.563 21H57.31l-1.465-2.373L54.38 21h-1.26l2.139-3.205-2.074-3.135h1.253l1.39 2.315zm5.291-3.85v1.535h1.184v.838h-1.184v3.932c0 .254.053.444.158.571.106.127.286.19.54.19.124 0 .296-.023.515-.07V21a3.143 3.143 0 0 1-.832.117c-.484 0-.85-.146-1.096-.44-.246-.292-.369-.708-.369-1.247v-3.932H58.88v-.838h1.154v-1.535h1.084zm5.08 7.992c-.86 0-1.558-.282-2.097-.846-.54-.565-.809-1.32-.809-2.265v-.2c0-.628.12-1.19.36-1.684s.577-.88 1.008-1.16c.432-.28.9-.419 1.403-.419.825 0 1.465.271 1.922.814.457.543.686 1.32.686 2.332v.452h-4.295c.016.625.198 1.13.548 1.514.35.385.794.577 1.333.577.383 0 .707-.078.972-.234.266-.156.499-.363.698-.621l.662.516c-.531.816-1.328 1.224-2.39 1.224zm-.135-5.683c-.437 0-.804.159-1.101.477-.297.318-.48.765-.55 1.339h3.175v-.082c-.031-.55-.18-.978-.445-1.28-.266-.303-.625-.454-1.079-.454zm6.926.199a3.248 3.248 0 0 0-.533-.041c-.71 0-1.193.303-1.447.908V21h-1.084v-6.34h1.054l.018.733c.356-.567.86-.85 1.512-.85.21 0 .37.027.48.082v1.008zm2.022-.973l.035.797c.484-.61 1.117-.914 1.898-.914 1.34 0 2.016.756 2.028 2.268V21h-1.084v-4.195c-.004-.457-.109-.795-.314-1.014-.205-.219-.524-.328-.958-.328-.351 0-.66.094-.926.281a1.91 1.91 0 0 0-.62.738V21h-1.085v-6.34h1.026zM84.52 21c-.063-.125-.114-.348-.153-.668-.504.523-1.105.785-1.805.785-.625 0-1.137-.177-1.538-.53-.4-.354-.6-.802-.6-1.345 0-.66.25-1.173.753-1.538.502-.365 1.208-.548 2.118-.548h1.055v-.498c0-.379-.114-.68-.34-.905-.227-.225-.56-.337-1.002-.337-.387 0-.711.098-.973.293-.262.195-.392.432-.392.709h-1.09c0-.316.112-.622.337-.917a2.3 2.3 0 0 1 .914-.7 3.075 3.075 0 0 1 1.268-.258c.73 0 1.303.183 1.717.548.414.365.629.868.645 1.509v2.918c0 .582.074 1.044.222 1.388V21H84.52zm-1.8-.826c.34 0 .663-.088.967-.264.305-.176.526-.404.663-.685v-1.301h-.85c-1.328 0-1.992.388-1.992 1.166 0 .34.113.605.34.797.226.191.517.287.873.287zm5.59.826h-1.083v-9h1.084v9zm6.083 0h-1.125v-8.531h1.125V21zm3.181-3.34V21H96.45v-8.531h3.147c.933 0 1.665.238 2.194.715.53.476.794 1.107.794 1.892 0 .828-.259 1.466-.776 1.913-.518.448-1.26.671-2.224.671h-2.01zm0-.92h2.022c.601 0 1.062-.141 1.382-.425.32-.283.481-.692.481-1.227 0-.508-.16-.914-.48-1.219-.32-.305-.76-.463-1.319-.474h-2.086v3.345zm14.127 2.033h-3.574L107.325 21h-1.16l3.258-8.531h.984L113.671 21h-1.154l-.815-2.227zm-3.234-.925h2.9l-1.453-3.99-1.447 3.99zm5.918-.07c0-.973.23-1.756.691-2.347.461-.592 1.065-.888 1.81-.888.743 0 1.33.254 1.764.762V12h1.084v9h-.996l-.052-.68c-.434.532-1.038.797-1.811.797-.734 0-1.333-.3-1.796-.902-.463-.602-.694-1.387-.694-2.356v-.082zm1.084.122c0 .72.148 1.282.445 1.688.297.406.707.61 1.23.61.688 0 1.19-.31 1.506-.927V16.36c-.324-.597-.822-.896-1.494-.896-.531 0-.945.205-1.242.615-.297.41-.445 1.018-.445 1.822zm5.683-.123c0-.972.23-1.755.692-2.346.46-.592 1.064-.888 1.81-.888.742 0 1.33.254 1.764.762V12h1.084v9h-.996l-.053-.68c-.433.532-1.037.797-1.81.797-.735 0-1.333-.3-1.796-.902-.463-.602-.695-1.387-.695-2.356v-.082zm1.084.123c0 .72.149 1.282.446 1.688.296.406.707.61 1.23.61.688 0 1.19-.31 1.506-.927V16.36c-.324-.597-.822-.896-1.494-.896-.531 0-.946.205-1.242.615-.297.41-.446 1.018-.446 1.822zm9.012-2.267a3.248 3.248 0 0 0-.533-.041c-.711 0-1.194.303-1.447.908V21h-1.084v-6.34h1.054l.018.733c.355-.567.86-.85 1.512-.85.21 0 .37.027.48.082v1.008zm3.516 5.484c-.86 0-1.559-.282-2.098-.846-.54-.565-.809-1.32-.809-2.265v-.2c0-.628.12-1.19.36-1.684.241-.494.577-.88 1.009-1.16.431-.28.899-.419 1.403-.419.824 0 1.465.271 1.922.814.457.543.685 1.32.685 2.332v.452h-4.295c.016.625.199 1.13.548 1.514.35.385.794.577 1.333.577.383 0 .707-.078.973-.234.266-.156.498-.363.697-.621l.662.516c-.531.816-1.328 1.224-2.39 1.224zm-.135-5.683c-.438 0-.805.159-1.102.477-.297.318-.48.765-.55 1.339h3.175v-.082c-.03-.55-.18-.978-.445-1.28-.266-.303-.625-.454-1.078-.454zm7.553 3.884c0-.293-.11-.52-.331-.682-.221-.162-.606-.302-1.155-.42-.549-.116-.984-.257-1.306-.421-.323-.164-.56-.36-.715-.586a1.402 1.402 0 0 1-.232-.809c0-.52.22-.959.66-1.318.439-.36 1-.539 1.684-.539.719 0 1.302.186 1.75.557.446.37.67.845.67 1.423h-1.09c0-.296-.126-.552-.378-.767-.252-.215-.57-.322-.952-.322-.394 0-.703.086-.926.257a.812.812 0 0 0-.334.674c0 .262.104.46.31.592.208.133.582.26 1.123.38.541.122.98.267 1.315.434.336.168.585.37.747.607.163.236.244.524.244.864 0 .567-.227 1.02-.68 1.362-.453.342-1.041.513-1.764.513-.508 0-.957-.09-1.347-.27a2.18 2.18 0 0 1-.917-.752 1.815 1.815 0 0 1-.331-1.046h1.084c.02.363.165.651.436.864.272.213.63.32 1.075.32.41 0 .74-.084.988-.25.248-.166.372-.387.372-.665zm6.187 0c0-.293-.11-.52-.33-.682-.222-.162-.606-.302-1.155-.42-.55-.116-.985-.257-1.307-.421-.322-.164-.56-.36-.715-.586a1.402 1.402 0 0 1-.231-.809c0-.52.22-.959.659-1.318.44-.36 1.001-.539 1.685-.539.718 0 1.301.186 1.749.557.447.37.67.845.67 1.423h-1.09c0-.296-.125-.552-.377-.767-.252-.215-.57-.322-.952-.322-.395 0-.704.086-.926.257a.812.812 0 0 0-.334.674c0 .262.103.46.31.592.207.133.581.26 1.122.38.541.122.98.267 1.316.434.336.168.585.37.747.607.162.236.243.524.243.864a1.62 1.62 0 0 1-.68 1.362c-.453.342-1.04.513-1.763.513-.508 0-.957-.09-1.348-.27a2.193 2.193 0 0 1-.917-.752 1.815 1.815 0 0 1-.331-1.046h1.084c.02.363.165.651.437.864.271.213.63.32 1.075.32.41 0 .739-.084.987-.25.248-.166.372-.387.372-.665zm5.127 1.8c-.86 0-1.559-.283-2.098-.847-.539-.565-.808-1.32-.808-2.265v-.2c0-.628.12-1.19.36-1.684s.576-.88 1.008-1.16c.432-.28.9-.419 1.403-.419.825 0 1.465.271 1.922.814.457.543.686 1.32.686 2.332v.452h-4.295c.015.625.198 1.13.548 1.514.35.385.794.577 1.333.577.382 0 .707-.078.972-.234.266-.156.498-.363.698-.621l.662.516c-.532.816-1.328 1.224-2.39 1.224zm-.135-5.684c-.437 0-.804.159-1.101.477-.297.318-.48.765-.551 1.339h3.176v-.082c-.032-.55-.18-.978-.446-1.28-.265-.303-.625-.454-1.078-.454zm7.553 3.884c0-.293-.11-.52-.331-.682-.22-.162-.605-.302-1.154-.42-.55-.116-.985-.257-1.307-.421-.322-.164-.56-.36-.715-.586a1.402 1.402 0 0 1-.231-.809c0-.52.22-.959.659-1.318.44-.36 1-.539 1.685-.539.718 0 1.301.186 1.749.557.447.37.67.845.67 1.423h-1.09c0-.296-.125-.552-.377-.767-.252-.215-.57-.322-.952-.322-.395 0-.704.086-.926.257a.812.812 0 0 0-.334.674c0 .262.103.46.31.592.207.133.581.26 1.122.38.541.122.98.267 1.316.434.336.168.585.37.747.607.162.236.243.524.243.864 0 .567-.227 1.02-.68 1.362-.453.342-1.04.513-1.763.513-.508 0-.957-.09-1.348-.27a2.193 2.193 0 0 1-.917-.752 1.815 1.815 0 0 1-.331-1.046h1.084c.02.363.165.651.436.864.272.213.63.32 1.076.32.41 0 .739-.084.987-.25.248-.166.372-.387.372-.665z" fill="#212121"/></g><use stroke="#E0E0E0" mask="url(#J)" stroke-width="2" fill="#FFF" xlink:href="#o"/><path d="M191.447 346h-1.482l-3.803-6.053V346h-1.482v-8.531h1.482l3.815 6.076v-6.076h1.47V346zm4.407.117c-.903 0-1.634-.284-2.195-.852-.56-.569-.84-1.326-.84-2.27v-.177c0-.632.121-1.198.366-1.696a2.787 2.787 0 0 1 1.028-1.163 2.719 2.719 0 0 1 1.476-.416c.864 0 1.53.275 2.001.826.471.55.706 1.33.706 2.338v.574h-4.142c.043.524.218.938.524 1.242.307.305.693.457 1.158.457.652 0 1.183-.263 1.593-.79l.768.732a2.563 2.563 0 0 1-1.017.882c-.424.209-.9.313-1.426.313zm-.17-5.431c-.391 0-.706.136-.947.41-.24.273-.393.654-.46 1.142h2.713v-.105c-.031-.477-.158-.837-.38-1.081-.223-.244-.532-.366-.926-.366zm5.601-2.567v1.541h1.12v1.055h-1.12v3.539c0 .242.048.417.144.524.095.108.266.161.512.161.164 0 .33-.02.498-.058v1.101c-.324.09-.636.135-.937.135-1.094 0-1.64-.603-1.64-1.81v-3.592h-1.044v-1.055h1.043v-1.54h1.424zm7.776 5.918l1.007-4.377h1.389l-1.728 6.34h-1.172l-1.36-4.354-1.336 4.354h-1.172l-1.734-6.34h1.389l1.025 4.33 1.3-4.33h1.073l1.319 4.377zm3.082-1.266c0-.62.123-1.18.369-1.678s.592-.881 1.037-1.149c.445-.267.957-.401 1.535-.401.855 0 1.55.275 2.083.826.533.55.821 1.281.864 2.192l.006.334c0 .625-.12 1.183-.36 1.675-.24.493-.584.873-1.031 1.143-.448.27-.964.404-1.55.404-.895 0-1.61-.298-2.148-.893-.537-.596-.805-1.39-.805-2.382v-.07zm1.423.124c0 .652.135 1.163.405 1.532s.644.553 1.125.553c.48 0 .854-.187 1.122-.562.267-.375.401-.924.401-1.647 0-.64-.138-1.148-.413-1.523a1.319 1.319 0 0 0-1.122-.562c-.465 0-.834.184-1.107.553-.274.37-.41.921-.41 1.656zm8.995-1.934a3.523 3.523 0 0 0-.58-.047c-.653 0-1.092.25-1.319.75V346h-1.424v-6.34h1.36l.035.71c.344-.552.82-.827 1.43-.827.203 0 .37.027.503.082l-.005 1.336zm2.959 2.32l-.633.65V346h-1.424v-9h1.424v5.191l.445-.556 1.752-1.975h1.71l-2.355 2.643 2.608 3.697H227.4l-1.88-2.719zm7.757.996a.645.645 0 0 0-.313-.58c-.21-.133-.556-.25-1.04-.351a5.346 5.346 0 0 1-1.213-.387c-.711-.344-1.066-.842-1.066-1.494 0-.547.23-1.004.69-1.371.462-.367 1.048-.551 1.759-.551.758 0 1.37.187 1.837.562.466.375.7.862.7 1.46h-1.424a.877.877 0 0 0-.305-.683c-.203-.182-.472-.273-.808-.273-.313 0-.568.073-.765.217a.683.683 0 0 0-.296.58c0 .219.092.389.276.51.183.121.554.243 1.113.366.558.123.997.27 1.315.44.319.17.555.374.71.612.154.238.23.527.23.867 0 .57-.236 1.032-.708 1.386-.473.353-1.092.53-1.858.53a3.28 3.28 0 0 1-1.388-.281 2.285 2.285 0 0 1-.95-.774 1.83 1.83 0 0 1-.34-1.06h1.383c.02.336.147.595.381.776.235.182.545.273.932.273.375 0 .66-.072.855-.214a.662.662 0 0 0 .293-.56z" fill="#212121"/><path d="M148.972 245.713h-1.653V249h-1.482v-8.531h3c.984 0 1.744.22 2.28.662.534.441.802 1.08.802 1.916 0 .57-.138 1.048-.413 1.432-.276.385-.66.681-1.152.888l1.917 3.557V249h-1.588l-1.711-3.287zm-1.653-1.19h1.524c.5 0 .89-.126 1.172-.377.28-.252.422-.597.422-1.035 0-.457-.13-.81-.39-1.06s-.648-.38-1.163-.387h-1.565v2.86zm8.66 4.594c-.902 0-1.633-.284-2.194-.852-.56-.569-.84-1.326-.84-2.27v-.177c0-.632.121-1.198.366-1.696a2.787 2.787 0 0 1 1.028-1.163 2.719 2.719 0 0 1 1.476-.416c.864 0 1.53.275 2.001.826.471.55.706 1.33.706 2.338v.574h-4.142c.043.524.218.938.524 1.242.307.305.693.457 1.158.457.652 0 1.183-.263 1.593-.79l.768.732a2.563 2.563 0 0 1-1.017.882c-.424.209-.9.313-1.427.313zm-.17-5.431c-.39 0-.705.136-.946.41-.24.273-.393.654-.46 1.142h2.713v-.105c-.031-.477-.158-.837-.38-1.081-.223-.244-.532-.366-.926-.366zm3.569 2.097c0-.984.231-1.77.694-2.358.463-.588 1.077-.882 1.843-.882.723 0 1.291.252 1.705.756l.065-.639h1.283v6.147c0 .832-.259 1.488-.777 1.968-.517.48-1.215.721-2.094.721-.465 0-.92-.097-1.363-.29-.443-.193-.78-.446-1.01-.759l.673-.855c.438.52.977.78 1.618.78.472 0 .845-.129 1.119-.385.273-.256.41-.632.41-1.128v-.427c-.41.457-.957.685-1.64.685-.743 0-1.35-.295-1.82-.885-.47-.59-.706-1.406-.706-2.449zm1.418.123c0 .637.13 1.138.39 1.503s.62.548 1.08.548c.575 0 1-.246 1.278-.738v-2.79c-.27-.48-.691-.72-1.266-.72-.468 0-.833.186-1.092.557-.26.37-.39.918-.39 1.64zm7.148 3.094h-1.423v-6.34h1.423V249zm-1.511-7.986c0-.22.069-.4.208-.545.138-.145.337-.217.594-.217.258 0 .457.072.598.217a.75.75 0 0 1 .21.545c0 .215-.07.393-.21.536-.14.142-.34.214-.598.214-.257 0-.456-.072-.594-.214a.738.738 0 0 1-.208-.536zm2.795 4.757c0-.62.123-1.18.369-1.678s.591-.881 1.037-1.149c.445-.267.957-.401 1.535-.401.855 0 1.55.275 2.083.826.533.55.821 1.281.864 2.192l.006.334c0 .625-.12 1.183-.36 1.675-.24.493-.584.873-1.032 1.143-.447.27-.963.404-1.55.404-.894 0-1.61-.298-2.147-.893-.537-.596-.805-1.39-.805-2.382v-.07zm1.423.124c0 .652.135 1.163.405 1.532s.644.553 1.125.553c.48 0 .854-.187 1.122-.562.267-.375.401-.924.401-1.647 0-.64-.138-1.148-.413-1.523a1.319 1.319 0 0 0-1.122-.562c-.465 0-.834.184-1.107.553-.274.37-.41.921-.41 1.656zm6.996-3.235l.041.733c.47-.567 1.084-.85 1.846-.85 1.32 0 1.992.756 2.016 2.268V249h-1.424v-4.107c0-.403-.087-.7-.26-.894-.175-.193-.459-.29-.853-.29-.575 0-1.002.26-1.284.78V249h-1.423v-6.34h1.341zm6.211 4.84c.266 0 .471.075.616.226.144.15.216.338.216.565a.756.756 0 0 1-.216.554c-.145.146-.35.22-.616.22-.254 0-.455-.073-.603-.217a.743.743 0 0 1-.223-.557.78.78 0 0 1 .217-.565c.145-.15.348-.226.61-.226zm0-4.975c.266 0 .471.076.616.226.144.15.216.339.216.565a.756.756 0 0 1-.216.554c-.145.147-.35.22-.616.22-.254 0-.455-.072-.603-.217a.743.743 0 0 1-.223-.557c0-.226.072-.415.217-.565.145-.15.348-.226.61-.226zm11.96 3.698c-.087.91-.422 1.62-1.008 2.13-.586.51-1.366.764-2.338.764-.68 0-1.279-.16-1.796-.483-.518-.322-.917-.78-1.198-1.374-.282-.594-.428-1.283-.44-2.069v-.796c0-.805.143-1.514.428-2.127.285-.614.694-1.086 1.227-1.418.534-.332 1.15-.498 1.849-.498.941 0 1.7.255 2.273.767.575.512.909 1.235 1.002 2.168h-1.476c-.07-.613-.25-1.056-.536-1.327-.287-.272-.708-.407-1.263-.407-.645 0-1.14.235-1.485.706-.346.47-.523 1.16-.53 2.071v.756c0 .922.164 1.625.494 2.11.33.484.814.726 1.45.726.583 0 1.02-.131 1.313-.393.293-.261.479-.697.557-1.306h1.476zm3.978 2.894c-.902 0-1.634-.284-2.194-.852-.561-.569-.841-1.326-.841-2.27v-.177c0-.632.122-1.198.366-1.696a2.787 2.787 0 0 1 1.028-1.163 2.719 2.719 0 0 1 1.477-.416c.863 0 1.53.275 2 .826.472.55.707 1.33.707 2.338v.574h-4.143c.043.524.218.938.525 1.242.306.305.692.457 1.157.457.652 0 1.184-.263 1.594-.79l.767.732a2.563 2.563 0 0 1-1.016.882c-.424.209-.9.313-1.427.313zm-.17-5.431c-.39 0-.706.136-.946.41-.24.273-.394.654-.46 1.142h2.713v-.105c-.032-.477-.159-.837-.381-1.081-.223-.244-.531-.366-.926-.366zm5.139-1.026l.04.733c.47-.567 1.085-.85 1.846-.85 1.32 0 1.993.756 2.016 2.268V249h-1.424v-4.107c0-.403-.087-.7-.26-.894-.174-.193-.459-.29-.853-.29-.574 0-1.002.26-1.283.78V249h-1.424v-6.34h1.342zm7.136-1.54v1.54h1.12v1.055h-1.12v3.539c0 .242.048.417.144.524.096.108.267.161.513.161.164 0 .33-.02.498-.058v1.101c-.325.09-.637.135-.938.135-1.094 0-1.64-.603-1.64-1.81v-3.592h-1.043v-1.055h1.043v-1.54h1.423zm5.526 2.84a3.523 3.523 0 0 0-.58-.046c-.653 0-1.092.25-1.319.75V249h-1.424v-6.34h1.36l.035.71c.344-.552.82-.827 1.43-.827.203 0 .37.027.504.082l-.006 1.336zm4.511 5.04c-.062-.121-.117-.318-.164-.592a2.216 2.216 0 0 1-1.664.71c-.636 0-1.156-.182-1.558-.546a1.743 1.743 0 0 1-.604-1.347c0-.676.251-1.195.753-1.556s1.22-.542 2.153-.542h.874v-.416c0-.328-.092-.59-.276-.788-.183-.197-.463-.296-.838-.296-.324 0-.59.081-.797.243a.753.753 0 0 0-.31.618h-1.424c0-.347.115-.673.346-.975a2.3 2.3 0 0 1 .94-.712 3.303 3.303 0 0 1 1.327-.258c.742 0 1.334.186 1.776.56.441.373.668.897.68 1.573v2.86c0 .57.08 1.025.24 1.364v.1h-1.454zm-1.564-1.025c.281 0 .546-.069.794-.205a1.37 1.37 0 0 0 .56-.551v-1.196h-.768c-.527 0-.924.092-1.19.276a.892.892 0 0 0-.398.78c0 .273.09.49.273.652.181.163.424.244.729.244zm5.783 1.025h-1.424v-9h1.424v9zm10.916-8.531v5.7c0 .907-.29 1.625-.87 2.154-.58.53-1.352.794-2.317.794-.977 0-1.752-.26-2.326-.782-.575-.522-.862-1.245-.862-2.17v-5.696h1.477v5.707c0 .57.144 1.006.433 1.306.29.301.715.452 1.278.452 1.14 0 1.71-.602 1.71-1.805v-5.66h1.477zm6.041 6.334c0-.375-.132-.664-.395-.867-.264-.204-.74-.409-1.427-.616-.688-.207-1.234-.437-1.64-.691-.778-.488-1.167-1.125-1.167-1.91 0-.688.28-1.254.841-1.7.56-.445 1.288-.667 2.183-.667.594 0 1.123.109 1.588.328.465.218.83.53 1.095.934.266.405.399.853.399 1.345h-1.477c0-.445-.14-.794-.419-1.046-.279-.252-.678-.378-1.198-.378-.484 0-.86.104-1.128.31-.267.208-.401.497-.401.868 0 .312.144.573.433.782.29.21.766.412 1.43.61.664.197 1.197.421 1.6.673.402.252.697.541.884.868.188.326.282.708.282 1.145 0 .711-.273 1.276-.818 1.696-.545.42-1.284.63-2.217.63a4.168 4.168 0 0 1-1.703-.343c-.517-.228-.92-.544-1.207-.946a2.358 2.358 0 0 1-.43-1.406h1.482c0 .484.16.86.48 1.125.32.266.78.398 1.378.398.515 0 .903-.104 1.163-.313.26-.21.39-.486.39-.83z" fill="#000"/></g><path d="M606.1 33.1v456m-477-456v456" stroke="#616161" stroke-dasharray="2"/><path d="M128.5 489.5h479m-479-459h479" stroke="#616161" stroke-dasharray="2,2,2,2"/></g></svg>